<?xml version="1.0" standalone="no"?>
<!DOCTYPE svg PUBLIC "-//W3C//DTD SVG 20010904//EN"
 "http://www.w3.org/TR/2001/REC-SVG-20010904/DTD/svg10.dtd">
<svg version="1.0" xmlns="http://www.w3.org/2000/svg"
 width="1011.000000pt" height="1011.000000pt" viewBox="0 0 1011.000000 1011.000000"
 preserveAspectRatio="xMidYMid meet">
<metadata>
Created by potrace 1.14, written by Peter Selinger 2001-2017
</metadata>
<g transform="translate(0.000000,1011.000000) scale(0.100000,-0.100000)"
fill="#000000" stroke="none">
<path d="M8896 6018 c-38 -19 -436 -414 -427 -423 2 -3 -1 -5 -7 -5 -7 0 -29
-17 -50 -39 -33 -34 -70 -61 -86 -61 -3 0 0 13 5 29 5 15 9 32 8 37 -1 5 0 16
4 24 3 8 8 26 10 40 3 14 13 50 22 80 9 30 17 60 19 65 1 6 8 30 15 55 30 105
29 106 -125 104 -65 -1 -124 -2 -130 -3 -12 -1 -42 -71 -50 -117 -3 -15 -10
-37 -16 -48 -6 -12 -10 -21 -9 -21 1 0 0 -7 -3 -15 -20 -62 -68 -227 -68 -237
-1 -7 -4 -13 -8 -13 -4 0 -7 -6 -7 -12 0 -7 -12 -51 -27 -98 -15 -47 -30 -94
-32 -106 -2 -12 -11 -41 -20 -65 -8 -24 -17 -51 -19 -59 -7 -29 -66 -225 -72
-240 -21 -48 -17 -50 101 -51 61 0 123 -2 138 -3 25 -1 30 5 62 80 37 85 58
136 61 144 1 3 13 30 26 60 14 30 41 91 60 134 21 49 35 72 38 61 2 -10 13
-35 26 -54 12 -20 42 -70 66 -111 24 -41 52 -88 62 -105 9 -16 20 -38 23 -47
4 -10 11 -18 16 -18 5 0 7 -4 4 -9 -4 -5 -3 -11 1 -13 5 -1 18 -23 31 -48 57
-112 86 -154 150 -217 60 -58 127 -79 281 -87 62 -4 81 -2 81 8 0 14 -124 261
-142 284 -6 6 -7 12 -2 12 5 0 4 4 -2 8 -6 4 -39 54 -73 112 -34 58 -67 114
-74 125 -7 11 -16 23 -22 27 -5 4 -6 8 -1 8 5 0 2 8 -6 18 -20 21 -78 129 -78
142 0 9 279 291 401 405 27 25 49 47 49 49 0 4 163 166 167 166 2 0 13 9 24
19 16 15 18 21 7 27 -23 14 -39 16 -203 19 -144 3 -164 1 -199 -17z"/>
<path d="M9555 5932 c-3 -3 -17 -8 -32 -10 -37 -4 -56 -29 -54 -65 1 -18 3
-54 4 -81 1 -29 7 -51 15 -54 6 -2 10 -8 7 -13 -3 -4 9 -8 27 -8 18 1 38 0 43
-2 18 -6 69 28 94 62 36 49 39 99 6 131 -25 25 -98 52 -110 40z"/>
<path d="M7343 5903 c-5 -1 -70 -3 -145 -6 -90 -3 -143 -9 -153 -17 -8 -7 -15
-9 -15 -5 0 17 -32 -21 -49 -59 -16 -35 -33 -95 -32 -111 0 -2 -6 -23 -14 -45
-8 -22 -14 -42 -15 -45 0 -3 0 -6 -1 -7 0 -2 -2 -13 -5 -26 -11 -62 -60 -113
-124 -129 -14 -3 -27 -9 -30 -12 -3 -3 -14 -11 -24 -17 -37 -20 -82 -117 -90
-196 -1 -10 -5 -21 -9 -24 -18 -18 19 -34 78 -34 80 0 94 -5 87 -33 -2 -12 -9
-27 -13 -33 -9 -11 -28 -76 -65 -224 -25 -98 -30 -139 -16 -141 4 0 59 -2 122
-4 63 -1 174 -6 245 -10 180 -11 279 -9 366 5 119 20 149 44 182 149 21 64 38
153 32 159 -3 3 -123 6 -268 7 -144 1 -265 3 -269 4 -17 3 31 110 50 112 4 0
16 3 27 5 11 3 121 7 245 10 123 3 230 10 236 15 34 28 94 191 94 257 0 37 35
33 -300 37 -118 1 -218 3 -222 3 -4 1 -2 17 3 35 6 17 12 39 13 47 2 8 11 14
20 14 9 -1 16 1 16 5 0 3 73 6 163 7 198 1 280 9 319 32 31 18 90 127 103 192
4 19 12 42 18 52 6 9 8 20 4 24 -6 6 -540 13 -564 7z"/>
<path d="M4437 5884 c-1 -1 -29 -4 -62 -7 -61 -6 -120 -22 -142 -40 -7 -5 -13
-6 -13 -2 0 9 -79 -53 -102 -80 -42 -49 -94 -188 -104 -280 -13 -116 72 -240
178 -260 56 -10 107 -13 263 -15 158 -2 198 -11 208 -49 7 -28 -24 -84 -48
-88 -11 -2 -137 -5 -280 -6 -296 -4 -306 -6 -343 -79 -29 -59 -62 -149 -62
-172 0 -15 6 -17 35 -14 19 2 35 0 35 -4 0 -4 11 -3 24 2 13 5 26 7 29 4 6 -6
464 -6 512 1 46 6 80 13 80 15 0 1 10 3 23 6 31 6 92 46 124 82 39 44 89 136
95 174 2 18 8 49 12 68 26 126 -28 264 -119 302 -27 11 -102 16 -308 19 -174
3 -179 4 -188 43 -7 28 -8 49 -5 76 4 32 57 37 404 41 154 1 197 11 235 50 30
32 62 124 66 189 l1 25 -273 0 c-151 0 -274 -1 -275 -1z"/>
<path d="M5906 5883 c-1 -1 -54 -3 -119 -4 -73 -1 -120 -5 -126 -13 -11 -14
-77 -210 -85 -253 l-5 -33 72 -1 c321 -3 312 -3 310 -24 0 -11 -9 -45 -18 -75
-8 -30 -18 -63 -20 -74 -2 -10 -11 -43 -20 -72 -9 -30 -16 -56 -16 -59 0 -2
-6 -20 -15 -40 -8 -19 -12 -35 -9 -35 2 0 0 -12 -6 -27 -6 -16 -12 -35 -14
-43 -6 -30 -68 -255 -81 -298 -8 -23 -14 -51 -14 -61 0 -10 -3 -21 -7 -25 -4
-3 -8 -13 -9 -21 -2 -12 7 -14 44 -11 301 29 288 26 314 84 20 49 116 358 124
402 3 14 9 39 14 55 5 17 12 44 15 60 3 17 7 35 9 40 1 6 9 37 16 70 16 70 13
59 29 113 9 33 17 42 34 43 12 0 72 2 132 4 70 2 123 9 145 19 49 22 95 66
105 101 4 17 9 35 11 40 2 6 6 24 9 40 3 17 10 45 15 62 5 20 5 35 -1 39 -8 5
-828 2 -833 -3z"/>
<path d="M3417 5873 c-4 -3 -53 -8 -109 -10 -130 -5 -147 -7 -181 -21 -16 -7
-31 -12 -33 -12 -3 0 -26 -9 -51 -21 -47 -21 -93 -60 -93 -79 0 -5 -4 -10 -9
-10 -11 0 -41 -56 -41 -77 0 -7 -5 -13 -11 -13 -5 0 -8 -4 -5 -8 3 -5 -1 -33
-9 -63 -7 -30 -16 -70 -19 -89 -3 -19 -8 -46 -11 -60 -3 -14 -7 -36 -10 -50
-10 -54 -15 -76 -22 -105 -4 -16 -7 -34 -8 -40 0 -5 -4 -23 -8 -40 -4 -16 -10
-40 -12 -52 -12 -54 -15 -66 -21 -86 -7 -21 -10 -32 -18 -87 -2 -14 -5 -25 -6
-25 -2 0 -7 -26 -12 -60 -2 -11 -6 -24 -9 -30 -12 -23 -10 -75 3 -76 7 0 55
-2 106 -3 l93 -3 15 29 c8 15 12 28 10 28 -3 0 0 15 5 33 6 17 12 42 15 55 2
13 11 42 18 65 8 23 17 56 21 72 14 69 11 68 252 69 l218 1 0 -35 c-1 -34 -9
-95 -19 -142 -3 -12 -8 -36 -10 -53 -3 -16 -8 -47 -12 -67 -8 -43 -19 -39 121
-44 105 -3 124 1 124 24 0 16 7 54 11 60 2 1 4 7 5 12 1 6 3 11 4 13 2 1 4 13
6 27 2 14 6 36 9 50 7 35 15 71 22 102 3 15 5 29 4 30 -1 2 3 15 8 29 6 14 13
43 16 65 4 21 11 55 16 74 5 19 12 47 15 63 3 15 7 39 10 55 3 15 10 43 15 62
5 19 11 53 15 75 3 23 8 52 10 65 11 54 17 131 12 152 -8 31 -74 102 -114 122
-18 9 -33 14 -33 10 0 -4 -6 -2 -12 3 -7 6 -28 10 -46 9 -17 0 -32 3 -32 7 0
5 -5 5 -11 1 -13 -7 -164 -8 -177 0 -5 3 -12 3 -15 -1z m65 -248 c5 -6 8 -5 8
3 0 10 5 10 20 2 11 -6 24 -9 29 -6 13 9 18 -22 14 -99 -2 -38 -3 -82 -4 -97
0 -19 -7 -29 -22 -34 -32 -10 -377 -12 -383 -2 -3 5 -10 6 -15 2 -9 -5 -5 60
6 96 2 8 6 26 9 40 12 69 36 92 104 95 17 1 34 4 36 6 9 9 191 3 198 -6z"/>
<path d="M1262 5863 c-4 -1 -79 -3 -167 -6 -103 -2 -168 -8 -183 -16 -25 -13
-51 -64 -54 -106 -1 -14 -6 -25 -11 -25 -4 0 -6 -4 -3 -9 9 -14 -35 -178 -70
-256 -10 -25 -58 -77 -67 -74 -1 0 -21 -7 -45 -16 -32 -13 -47 -27 -61 -55
-22 -46 -56 -168 -49 -176 3 -3 34 -7 68 -9 34 -2 64 -6 66 -8 3 -2 0 -24 -6
-48 -6 -24 -13 -53 -15 -64 -5 -21 -36 -125 -64 -218 -10 -32 -15 -59 -12 -62
21 -12 200 13 218 31 15 14 61 114 67 142 1 9 6 24 9 32 8 22 40 132 44 154 2
11 6 22 9 25 3 3 91 6 197 7 106 0 215 4 242 8 120 17 251 116 305 230 68 146
85 357 35 437 -17 27 -68 56 -120 68 -41 9 -306 21 -333 14z m-82 -275 c77 5
249 -3 271 -12 26 -11 61 -96 40 -96 -6 0 -10 -3 -9 -7 5 -17 -28 -73 -50 -85
-21 -11 -130 -14 -354 -9 l-48 1 6 47 c3 26 12 62 19 80 8 18 12 33 9 33 -3 0
0 9 6 21 12 22 49 40 65 31 5 -3 25 -5 45 -4z"/>
<path d="M2095 5862 c-16 -2 -42 -8 -58 -14 -29 -11 -90 -85 -81 -100 3 -4 1
-8 -4 -8 -7 0 -28 -51 -38 -95 -1 -5 -5 -21 -8 -35 -3 -14 -17 -68 -31 -120
-14 -52 -28 -106 -31 -120 -4 -20 -19 -76 -29 -110 -1 -3 -5 -18 -9 -35 -5
-16 -21 -77 -37 -135 -15 -58 -30 -118 -33 -135 -2 -16 -5 -30 -6 -30 -1 0 -3
-8 -5 -17 -2 -10 -11 -51 -21 -93 -10 -41 -16 -77 -13 -79 9 -9 129 -11 129
-3 0 6 5 6 13 0 11 -8 564 -9 632 0 17 2 35 5 41 5 24 4 61 50 74 92 16 56 39
160 40 180 0 13 -36 15 -265 15 -146 -1 -265 1 -265 5 1 16 34 136 76 275 8
28 24 84 35 125 11 41 36 129 56 195 19 66 36 125 37 130 1 6 8 27 15 48 7 22
9 43 5 47 -9 9 -166 17 -219 12z"/>
<path d="M5240 5283 c-42 -4 -79 -21 -103 -48 -23 -25 -78 -136 -72 -145 7
-11 442 -2 478 9 18 6 47 26 65 45 36 39 73 117 63 134 -6 11 -334 14 -431 5z"/>
<path d="M6740 4510 c-70 -19 -136 -72 -163 -130 -20 -45 -35 -109 -31 -135 2
-11 5 -37 6 -57 2 -21 5 -38 8 -38 4 0 12 -16 19 -35 12 -34 82 -114 102 -116
13 -2 22 -5 44 -14 38 -17 167 -10 210 10 74 35 126 111 124 184 -1 69 -6 73
-98 77 -79 3 -83 2 -89 -19 -9 -36 -13 -34 77 -36 52 -1 59 -4 65 -23 6 -26
-31 -90 -73 -125 -42 -35 -144 -47 -205 -23 -38 14 -96 70 -112 109 -20 46
-20 156 -1 201 34 81 119 131 212 125 33 -3 61 -9 63 -15 2 -5 9 -10 16 -10 7
0 35 -23 63 -51 l49 -50 -1 34 c-5 88 -88 150 -198 146 -34 -1 -73 -5 -87 -9z"/>
<path d="M3945 4500 c-53 -8 -123 -41 -159 -76 -63 -60 -102 -208 -70 -268 7
-16 14 -34 14 -41 0 -18 89 -115 106 -115 8 0 14 -4 14 -10 0 -5 10 -10 23
-10 13 0 27 -4 32 -9 16 -16 107 -19 152 -5 80 24 117 52 119 92 l1 22 -32
-24 c-18 -14 -39 -27 -46 -28 -8 -2 -17 -7 -20 -11 -9 -12 -115 -21 -136 -12
-10 4 -27 10 -37 12 -33 6 -84 52 -113 100 -22 38 -27 59 -26 108 1 72 3 81
28 120 26 40 55 69 85 86 37 20 49 22 126 23 68 1 71 0 110 -36 21 -21 42 -38
47 -38 4 0 6 14 5 30 -1 17 -6 30 -10 30 -4 0 -8 6 -8 13 0 32 -121 59 -205
47z"/>
<path d="M4279 4458 c-1 -89 -1 -349 0 -426 1 -71 2 -73 23 -66 35 11 47 28
36 48 -6 11 -6 22 -1 27 5 5 7 32 3 59 -3 27 -2 56 2 65 6 9 5 15 -1 15 -13 0
-10 42 3 52 9 6 106 -88 106 -103 0 -3 20 -28 45 -55 24 -27 45 -52 45 -55 0
-17 59 -42 99 -44 58 -3 67 0 81 36 7 16 16 29 21 29 5 0 8 3 7 8 -3 12 13 56
27 72 10 11 37 15 111 15 l97 0 41 -80 c35 -69 45 -80 70 -83 15 -2 26 0 23 5
-18 31 -94 199 -117 262 -15 42 -41 103 -58 136 -16 33 -36 75 -44 93 l-15 32
-24 -52 c-13 -29 -28 -56 -34 -60 -5 -4 -7 -8 -3 -8 4 0 -9 -37 -28 -82 -20
-46 -37 -91 -40 -102 -2 -10 -7 -23 -12 -30 -5 -6 -17 -33 -27 -61 -23 -65
-52 -105 -75 -105 -16 0 -46 29 -105 101 -11 13 -39 47 -61 74 -45 55 -61 90
-44 100 6 3 8 10 5 14 -2 5 40 54 94 109 63 65 93 103 84 106 -24 9 -176 -133
-241 -225 -25 -35 -36 -17 -35 57 1 38 2 74 4 79 4 16 -13 69 -25 80 -27 24
-36 15 -37 -37z m616 -84 c0 -6 18 -49 39 -97 21 -48 37 -89 35 -91 -5 -5
-156 -20 -171 -17 -6 1 18 66 60 163 11 25 17 49 14 53 -4 4 0 6 8 3 8 -3 15
-9 15 -14z"/>
<path d="M5326 4485 c-115 -47 -160 -115 -160 -245 0 -104 39 -186 116 -245
61 -48 285 -31 305 22 3 7 11 13 19 13 20 0 68 78 71 114 6 63 5 77 -1 83 -4
4 -49 7 -101 8 -73 1 -95 -2 -95 -12 0 -19 21 -25 92 -27 69 -1 76 -11 54 -66
-35 -87 -89 -118 -211 -122 -71 -2 -136 40 -172 112 -29 57 -37 142 -18 185 4
11 9 22 10 25 6 26 41 74 67 93 86 64 176 59 274 -15 63 -47 80 -49 59 -9 -47
93 -193 133 -309 86z"/>
<path d="M6400 4500 c-8 -5 -11 -10 -6 -10 5 0 4 -6 -1 -12 -5 -7 -8 -97 -8
-200 1 -104 0 -188 -2 -188 -4 0 -63 63 -153 162 -41 45 -96 104 -121 130 -26
27 -45 48 -44 48 2 0 -11 15 -28 33 -18 19 -34 33 -37 31 -3 -1 -6 -119 -5
-261 0 -251 1 -258 20 -261 20 -3 20 2 20 203 0 155 3 206 13 210 6 2 12 1 12
-3 0 -11 106 -127 250 -275 l125 -128 -2 257 c-1 141 -6 261 -10 265 -4 4 -15
4 -23 -1z"/>
<path d="M2895 4484 c-7 -8 -10 -77 -9 -220 3 -279 4 -302 22 -309 27 -10 27
-10 35 172 1 34 6 65 10 69 4 4 41 8 82 10 80 2 88 7 130 68 41 60 12 176 -50
200 -48 19 -204 26 -220 10z m166 -56 c41 -12 59 -40 59 -92 0 -59 -31 -77
-130 -80 l-45 -1 1 82 c1 46 4 89 7 96 6 15 48 13 108 -5z"/>
<path d="M5810 4491 c-13 -5 -15 -44 -15 -261 0 -254 0 -255 22 -258 20 -3 22
1 20 38 -2 23 0 43 3 45 3 2 4 81 3 177 -4 290 -2 272 -33 259z"/>
<path d="M3427 4483 c-4 -3 -7 -13 -7 -21 0 -9 -8 -24 -17 -35 -10 -11 -13
-18 -7 -14 6 3 -1 -17 -15 -46 -23 -45 -81 -173 -86 -187 0 -3 -8 -21 -17 -40
-71 -161 -81 -197 -52 -186 9 3 19 6 23 6 4 0 20 30 35 68 44 107 40 105 156
106 l102 1 20 -45 c54 -123 59 -130 83 -128 28 3 28 13 -4 83 -13 28 -36 83
-53 124 -17 41 -34 82 -39 90 -19 36 -79 172 -79 181 0 6 -4 10 -10 10 -5 0
-10 9 -10 20 0 20 -11 26 -23 13z m50 -188 c18 -44 34 -86 36 -95 1 -8 7 -18
12 -22 6 -5 4 -8 -5 -9 -8 0 -31 -2 -50 -3 -19 -1 -47 1 -62 5 -18 5 -28 4
-28 -3 0 -7 -5 -7 -14 1 -11 10 -10 20 7 69 12 31 25 60 30 63 5 4 7 11 3 17
-3 6 -2 13 4 17 5 3 10 15 10 26 0 40 25 11 57 -66z"/>
</g>
</svg>
