<?xml version="1.0" encoding="utf-8"?>
<!-- Generator: Adobe Illustrator 24.3.0, SVG Export Plug-In . SVG Version: 6.00 Build 0)  -->
<svg version="1.1" id="katman_1" xmlns="http://www.w3.org/2000/svg" xmlns:xlink="http://www.w3.org/1999/xlink" x="0px" y="0px"
	 viewBox="0 0 841.9 595.3" style="enable-background:new 0 0 841.9 595.3;" xml:space="preserve">
<style type="text/css">
	.st0{fill:#727070;}
	.st1{fill:#004A97;}
	.st2{fill:#004A96;}
</style>
<g>
	<g>
		<path class="st0" d="M352.8,260c-1.9-4.9-5.7-9.3-10.4-12.5c-13.5-8.6-34.1-9.2-48.1-1.4c-7.6,3.9-12.6,11.6-14.2,19.4
			c-2.8,13-2.1,28.4,7.9,38.1c11.7,10.2,28.6,12.5,43.7,8.3c0.7-0.1,3-0.7,4.6-1.5l0.4-0.2c4.7-1.9,9.2-5.1,12.5-9.4
			C357,289.5,357.5,272.6,352.8,260z M328.2,289.1c-0.5,2.5-2.2,5-4.8,5.9c-4.2,1.8-9.8,1.3-13.6-0.8c-3.2-2.3-3.6-6-4.1-9.6
			c-0.3-7.1-0.8-14.5,1.2-21c1.5-4,5.8-5,9.7-5.3c4.1,0,8,0.6,10.5,3.9c1.6,2.3,1.5,5.4,1.8,8.2
			C328.8,276.2,329.3,283.2,328.2,289.1z"/>
		<path class="st0" d="M204.9,295.5c-3.4-0.2-7.3,0.1-10.6-0.3l0.1-35.9l0.2-0.3l10.3-0.1c0.1-5.8,0.2-12.1-0.1-17.4l-39.2-0.1
			l-6.5,0.1c-0.1,5.4-0.1,11.8,0,17.3c3.5,0.1,6.9,0,10.3,0.3v34.8l-0.1,1.4l-10.3,0.2c-0.2,5.7-0.2,11.2,0,16.9h45.9V295.5z"/>
		<path class="st0" d="M320.4,320c-4.4,6.2-9.9,12.3-15.9,17c-0.2,0.3-0.8,0.2-1-0.1c-2.6-1.6-5.4-3-7.9-4.6c3.3-4,6.6-8,9.1-12.4
			h-3.2c-2.6,3.8-5.3,7.8-8.7,11.2c-4.6-1.8-8.7-3.5-13.4-4.7l-0.5-0.4c0.7-2.1,2.1-4,2.5-6.1h-2.8l-2.8,5.5
			c-6.1-1.3-12.9-2-19.2-2.5c-0.3-0.9,0.1-2.2-0.3-3.1h-2.7c-0.2,1.2,0.3,2.2-0.3,3.2c-6.5,0.3-12.7,1-18.7,2.3l-2.8-5.4
			c-1,0-2.2-0.2-2.9,0.1l2.6,6l-0.3,0.3c-4.7,1.3-9.3,3-13.7,4.8l-0.4-0.2c-2.9-3.2-5.7-6.6-8-10.1c-0.5-1.7-2.6-0.7-3.7-0.9
			c2.5,4.5,5.8,8.5,9.2,12.6c-2.8,1.6-5.6,3.5-8.5,4.8c-6.2-4.7-12.1-10.8-16.4-17.3c-1.3-0.2-2.1-0.1-3.3,0
			c7.5,11.7,19.2,21.9,31.3,27.9c0,0,0-0.1,0.1-0.1c0.1,0,0.3,0.2,0.1,0.3c8.2,4,17,6.9,26.2,8.1c32,4.2,62.5-9.4,80.2-36.2
			C322.8,319.9,321.5,319.9,320.4,320z M277,329.2l0.3-0.2c4.5,1,8.7,2.5,12.7,4.4c-3.3,3.8-7.6,7.1-11.6,9.8
			c-2.4,1.4-4.8,3-7.3,4.2l-4.5-1.9l0.3-0.7C270.8,339.8,274.1,334.6,277,329.2z M256.5,326.1c5.9,0.1,11.9,0.7,17.4,2l0.1,0.3
			c-2.9,5.5-6.6,10.8-10.5,15.9c-1.8,0.2-3.4-0.5-5.2-0.6l-1.8-0.2C256.3,337.5,256.2,332.2,256.5,326.1z M236.4,328
			c5.4-1,11-1.8,16.9-1.8l0.1,17.3c-2.2,0.5-4.6,0.5-6.7,1c-4.3-5-7.8-10.5-10.8-16.1L236.4,328z M219.7,333.5
			c4.1-2,8.3-3.4,12.7-4.5l0.4,0.1c3,5.6,6.8,10.9,10.5,16.3c-1.5,0.8-3.2,1.3-4.7,2.1c-6.9-3.4-13.4-8.1-19-13.7V333.5z M233.1,351
			c-8.7-2.3-16.9-6.1-24.4-11.5v-0.3c2.5-1.5,5-3.2,7.7-4.3c5.9,5.8,12.1,10.2,18.7,14.4C234.7,350,233.8,350.6,233.1,351z
			 M271.7,352.3c-11,2.4-23.3,2.5-34.4-0.2c-0.2-0.5,0.5-0.6,0.8-0.9c9.7-6.2,24.8-6.2,34.3,0.5
			C272.8,352.3,271.9,352.1,271.7,352.3z M281.7,349.5l-4.9,1.5c-0.8-0.4-1.6-1-2.3-1.6l0.2-0.3c6.7-3.9,12.7-8.6,18.4-14.2
			c2.8,1.1,5.5,2.7,8,4.4C295.4,343.9,288.6,346.9,281.7,349.5z"/>
		<path class="st0" d="M189,233.6c2.5-3.5,5.3-6.9,8.4-10.1c2.7-2.6,5.2-5,8.1-6.9c2.7,1.7,5.7,3.2,8.3,4.8c-3.2,4-6.6,8-9,12.3
			c0.7,0.3,2.1,0.2,3.1,0c2.6-3.8,5.4-7.6,8.7-10.9c4.5,1.6,8.8,3.4,13.4,4.6l0.4,0.4l-2.6,5.9c1.2,0.2,1.9,0.1,3,0
			c0.9-1.7,1.7-3.7,2.7-5.4c6,1.3,12.4,2,18.9,2.2c0.8,0.7,0.2,2.3,0.5,3.2h2.8c0.3-1-0.1-2.1,0.3-3.1c6-0.3,12.4-0.9,18.2-2.4
			l0.5,0.1l2.8,5.3c0.9,0,2.2,0.2,2.9-0.2l-2.6-5.9l0.2-0.2c4.8-1.2,9.3-3.1,13.8-4.9c3.2,3.4,6.2,7.4,9,11.2c1.1,0,2.3,0.1,3.1-0.2
			c-1.3-2.2-2.8-4.5-4.5-6.4c-1.4-1.9-2.8-3.7-4.6-5.5V221l7.3-4.2l1.1-0.4c6.3,4.8,12,10.6,16.4,17.1c1.3,0,2.3,0.4,3.3-0.1
			c-14-20.9-37-34.3-61.8-36.2l-0.1,0.2l-0.2-0.2c-2.8-0.3-6.3-0.4-9.3-0.1c-1.1-0.1-2.5,0-3.9,0.1c-25,1.9-48,14.7-62.4,36.5
			C186.7,233.6,187.9,234,189,233.6z M232.2,224.6l-0.4,0.1c-4.3-1.1-8.4-2.5-12.4-4.2l0.2-0.6c5.7-5.4,11.8-9.9,18.4-13.4
			c1.6,0.6,3.1,1.1,4.7,1.8l-0.3,0.8C238.4,214,235.3,219.3,232.2,224.6z M252.9,227.3c-2.9,0.4-5.5-0.1-8.4-0.3
			c-2.8-0.4-6.3-0.7-9.2-1.6c3-5.6,6.6-11,10.8-16l6.7,0.9C253.1,215.6,252.9,221.7,252.9,227.3z M256.1,227.4
			c-0.2-5.4-0.1-11.5,0-17.1c2.1-0.3,4.4-0.6,6.5-0.9c4.1,5.1,8,10.3,10.7,15.9C267.7,226.7,261.9,227.4,256.1,227.4z M289.3,220.3
			c-4.1,1.7-8.2,3.4-12.7,4.3c-3.2-5.4-6.8-10.8-10.7-16.1c1.5-0.8,3.2-1.4,4.8-2.2c6.8,3.4,13.3,8.2,18.8,13.7L289.3,220.3z
			 M276,202.8c8.7,2.3,17,6.1,24.5,11.5l-0.2,0.4l-7.2,4h-0.5c-5.5-5.5-12-10.3-18.5-14.1C274.2,203.8,275.3,203.3,276,202.8z
			 M271.8,201.8v0.2c-9.1,6.5-23.7,7.2-33.3,1.1c-0.5-0.4-1.6-0.6-1.7-1.3C247.9,199.2,260.9,199,271.8,201.8z M208.3,214.4
			c6.6-4.8,13.8-8.4,21.6-10.8c0.3-0.3,0.5-0.6,0.9-0.6v0.2c0.8,0.2,1.5-0.7,2.2-0.1c0.6,0.5,1.4,0.9,1.9,1.4
			c-6.5,4-12.8,8.7-18.6,14.4c-2.8-1-5.4-2.5-7.9-4.3V214.4z"/>
		<path class="st0" d="M253,296.3c-9.8,2.7-20.4,0.6-27.5-6.7c-0.8-1-1.4-2.2-2.2-3.3l-14,0.1c-0.2,8.3-0.3,17.8,0,26l15.6-0.1
			l0.2-4.9c1.8,0.8,3.5,1.8,5.3,2.8c10.8,4.5,24.8,5.5,35.5,0c7.8-4.3,12-12.6,10.8-21.5c-1.1-8.7-9.5-16.6-17.9-18.7l-25.2-7.3
			l-1.9-0.9c-0.8-0.7-1.4-1.6-1.2-2.8c2-3.4,6.6-2.3,10-2.3c7.3,1,14.8,3.5,19.1,10.1c4.6,0,9.9,0.1,14.9-0.1
			c0.2-8.4-0.1-15.7-0.2-24.2c-4.7-0.1-10.4-0.1-15.1,0.1c-0.2,1.2,0.2,2.9-0.3,4.2l-4.8-2.6c-11.5-4.8-27.5-5.3-37.9,2.2
			c-6.8,4.9-8.8,13.7-7.1,21.5c1.4,7.4,8.4,12.8,15.2,15.3c9.3,3.3,18.9,5.6,28.3,8.8c0.9,0.4,2.2,1.3,2,2.5
			C254.7,295.3,253.7,295.9,253,296.3z"/>
	</g>
	<g>
		<path class="st1" d="M211.5,390.1c0.9,0.1,1.7,0,3.1-0.1c2.2-0.2,4.4-1,6.1-2.3c1.9-1.6,3.3-3.8,3.8-6.6l-0.1,0
			c-1.5,1.7-3.6,2.7-6.5,2.7c-5.2,0-9-3.8-9-9.3c0-5.7,4.4-10.6,10.8-10.6c6.9,0,10.6,5.5,10.6,12.7c0,6.4-2.1,10.9-5.2,13.9
			c-2.6,2.4-6.2,3.8-10.2,4.1c-1.3,0.1-2.6,0.1-3.4,0.1V390.1z M214.5,374.1c0,3.1,1.8,5.5,4.9,5.5c2.3,0,3.9-1.1,4.8-2.5
			c0.2-0.4,0.3-0.8,0.3-1.6c0-4-1.5-7.5-5.1-7.5C216.5,368,214.5,370.5,214.5,374.1z"/>
		<path class="st1" d="M254.9,379c0,9.6-3.8,15.6-10.9,15.6c-6.9,0-10.6-6.2-10.6-15.3c0-9.3,3.9-15.5,10.9-15.5
			C251.6,363.8,254.9,370.2,254.9,379z M239.1,379.3c0,7.3,2,11,5.1,11c3.3,0,5-4,5-11.2c0-6.9-1.7-11-5-11
			C241.2,368.1,239.1,371.8,239.1,379.3z"/>
		<path class="st1" d="M279.5,379c0,9.6-3.8,15.6-10.9,15.6c-6.9,0-10.6-6.2-10.6-15.3c0-9.3,3.9-15.5,10.9-15.5
			C276.2,363.8,279.5,370.2,279.5,379z M263.7,379.3c0,7.3,2,11,5.1,11c3.3,0,5-4,5-11.2c0-6.9-1.7-11-5-11
			C265.8,368.1,263.7,371.8,263.7,379.3z"/>
		<path class="st1" d="M291.9,369.4L291.9,369.4l-5.6,2.8l-1-4.3l7.3-3.6h4.7v29.8h-5.5V369.4z"/>
	</g>
	<path class="st0" d="M253,416.8c-65.6,0-118.9-53.3-118.9-118.9S187.4,178.9,253,178.9s118.9,53.3,118.9,118.9
		S318.6,416.8,253,416.8z M253,182.5c-63.6,0-115.3,51.7-115.3,115.3S189.4,413.2,253,413.2s115.3-51.7,115.3-115.3
		S316.6,182.5,253,182.5z"/>
	<path class="st2" d="M253,455.8c-87.1,0-158-70.9-158-158s70.9-158,158-158s158,70.9,158,158S340.1,455.8,253,455.8z M253,143.6
		c-85.1,0-154.3,69.2-154.3,154.3S167.9,452.1,253,452.1s154.3-69.2,154.3-154.3S338.1,143.6,253,143.6z"/>
	<g>
		<path class="st1" d="M142.2,229.5l2.4-0.8l0.8,2.5l-2.6,0.8c0,1.5-0.4,3-1.2,4.5c-1.9,3.3-4.6,4.6-8.3,4c-1.3-0.2-2.5-0.6-3.6-1.2
			c-2.4-1.4-4-3.2-4.7-5.6c-0.6-1.9-0.3-3.9,0.9-6c1.9-3.3,4.6-4.7,8.3-4.1c1.3,0.2,2.5,0.6,3.6,1.3
			C139.9,226,141.3,227.5,142.2,229.5z M139.6,233l-2.3,0.7l-0.8-2.5l2.6-0.8c-0.6-1-1.5-1.9-2.8-2.6c-1.5-0.8-2.9-1.2-4.2-1
			c-1.5,0.2-2.6,1-3.4,2.4c-0.8,1.4-0.9,2.8-0.3,4.1c0.5,1.2,1.5,2.2,3,3c1.5,0.8,2.9,1.2,4.2,1c1.5-0.2,2.6-1,3.4-2.4
			C139.3,234.3,139.5,233.7,139.6,233z"/>
		<path class="st1" d="M142.8,211l10.3,7.6l-1.9,2.6l-1.3-0.9c0.5,1.3,0.5,2.6-0.2,3.8c-0.8,1.1-1.6,1.8-2.4,2.1
			c-1.3,0.6-2.6,0.3-4.1-0.8l-7.1-5.3l1.9-2.6l6.4,4.7c0.7,0.5,1.2,0.7,1.6,0.8c0.7,0.1,1.3-0.3,1.9-1.3c0.9-1.4,0.8-2.4-0.3-3.2
			l-6.6-4.9L142.8,211z"/>
		<path class="st1" d="M162.1,208.4l-2.3,2.6c-0.4,0-0.8-0.2-1.2-0.6c0,1.8-0.4,3.2-1.3,4.2c-1.8,2-3.7,2.1-5.5,0.2
			c-1.6-1.6-1.8-3.4-0.5-5.4c0.8-0.9,1.4-1.9,1.8-2.8c0.2-0.6,0.1-1.1-0.5-1.6c-0.3-0.3-0.8-0.3-1.3-0.1c-0.4,0.2-0.7,0.5-1.1,0.9
			c-0.9,1.1-0.9,2.1,0.1,3l-2.1,2.3c-2.2-2-2.1-4.3,0.3-6.9c2.4-2.6,4.6-3,6.6-1.2l5.1,4.7c0.4,0.4,1,0.5,1.6,0.5L162.1,208.4z
			 M155.6,207.7l-0.5-0.5c-0.1,0.5-0.3,1-0.7,1.5c-0.3,0.4-0.5,0.7-0.8,1.1c-0.3,0.4-0.4,0.9-0.4,1.3c0,0.4,0.2,0.7,0.5,1
			c0.4,0.3,0.7,0.5,1.1,0.4c0.4,0,0.8-0.2,1.1-0.6c0.1-0.2,0.3-0.3,0.4-0.5C157.1,210.2,156.9,208.9,155.6,207.7z"/>
		<path class="st1" d="M151.8,194.6l2.4-2.2l11.8,12.5l-2.4,2.2L151.8,194.6z"/>
		<path class="st1" d="M159.1,192l-1.9-2.3l2.5-2.1l1.9,2.3L159.1,192z M168.3,202.8l-8.3-9.7l2.5-2.1l8.3,9.7L168.3,202.8z"/>
		<path class="st1" d="M164.6,189.6l1.3-1l-2.1-2.8l2.6-2l2.1,2.8l1.5-1.1l1.3,1.7l-1.5,1.1l4.4,5.7c0.4,0.6,0.8,0.8,1.1,0.5l1-0.8
			l1.4,1.8c-0.3,0.5-0.7,0.9-1.1,1.2c-1.6,1.4-3.1,1.4-4.4,0.1l-5-6.6l-1.3,1L164.6,189.6z"/>
		<path class="st1" d="M171.1,184.2l3.1-2l7.3,6.3l-2.8-9.2l2.9-1.8l3.8,15.9c0.2,0.6,0.2,1.2,0.1,1.9c-0.2,0.8-1.2,1.8-3.1,3.1
			l-1.5-2.3c0.2-0.1,0.3-0.2,0.4-0.3c1.3-0.8,1.6-1.7,1-2.8c-0.1-0.2-0.3-0.4-0.5-0.5L171.1,184.2z"/>
		<path class="st1" d="M204.6,180.5l-3.3,1.4l-8.2-11.6l5.4,12.8l-3.3,1.4l-6.6-15.8l4.8-2l8,10.9l-2.1-13.4l4.8-2l6.6,15.8
			l-3.3,1.4l-5.4-12.8L204.6,180.5z"/>
		<path class="st1" d="M223.4,174.5l-3.4,0.9c-0.3-0.3-0.6-0.6-0.7-1.1c-0.9,1.5-2,2.5-3.4,2.8c-2.6,0.7-4.2-0.2-4.8-2.8
			c-0.5-2.2,0.3-3.8,2.5-4.9c1.2-0.4,2.2-0.9,3-1.4c0.5-0.4,0.6-0.9,0.4-1.6c-0.1-0.4-0.5-0.7-1-0.7c-0.4,0-0.9,0-1.4,0.2
			c-1.3,0.4-1.8,1.3-1.5,2.6l-3,0.8c-0.8-2.9,0.5-4.8,3.9-5.7c3.4-0.9,5.5-0.1,6.2,2.5l1.8,6.7c0.2,0.5,0.5,1,1.1,1.3L223.4,174.5z
			 M218.3,170.4l-0.2-0.7c-0.3,0.3-0.8,0.6-1.4,0.9c-0.4,0.2-0.9,0.3-1.3,0.5c-0.5,0.2-0.8,0.5-1,0.9c-0.2,0.4-0.2,0.7-0.1,1.1
			c0.1,0.5,0.4,0.8,0.7,1c0.4,0.2,0.8,0.2,1.3,0.1c0.2-0.1,0.4-0.1,0.6-0.2C218.3,173.3,218.8,172.1,218.3,170.4z"/>
		<path class="st1" d="M225.2,174l-2.2-12.6l3.2-0.6l0.3,1.9c0.5-1.5,1.4-2.4,2.8-2.7c3.2-0.6,5.1,0.6,5.6,3.5l1.4,8.4l-3.2,0.6
			l-1.3-7.7c-0.1-0.8-0.3-1.4-0.6-1.6c-0.4-0.5-1.2-0.6-2.2-0.4c-1.6,0.4-2.2,1.2-2,2.5l1.4,8L225.2,174z"/>
		<path class="st1" d="M249.8,171.1l-3.5,0.2c-0.3-0.3-0.4-0.7-0.4-1.2c-1.2,1.3-2.5,2-3.8,2.1c-2.7,0.2-4.1-1.1-4.1-3.7
			c-0.1-2.3,1.1-3.7,3.4-4.3c1.2-0.1,2.3-0.4,3.3-0.8c0.6-0.2,0.8-0.7,0.7-1.5c0-0.5-0.3-0.8-0.9-0.9c-0.4-0.1-0.9-0.1-1.4-0.1
			c-1.4,0.2-2,0.9-2,2.2l-3.1,0.2c-0.2-3,1.5-4.6,5-4.8c3.5-0.2,5.4,1,5.6,3.7l0.5,7c0,0.6,0.3,1,0.8,1.5L249.8,171.1z M245.6,166.1
			l0-0.7c-0.4,0.3-0.9,0.5-1.5,0.6c-0.5,0.1-0.9,0.2-1.4,0.3c-0.5,0.1-0.9,0.3-1.2,0.7c-0.3,0.3-0.4,0.7-0.4,1.1
			c0,0.5,0.2,0.9,0.5,1.1c0.3,0.3,0.7,0.4,1.2,0.3c0.2,0,0.4,0,0.6-0.1C245.1,169,245.8,167.9,245.6,166.1z"/>
		<path class="st1" d="M260.3,158.7l3.1,0.1l-0.5,13.1c-0.1,1.7-0.8,2.9-2.2,3.8c-1.2,0.7-3,1-5.2,0.8c-1.1-0.1-2.1-0.5-3-1.1
			c-1.1-0.8-1.5-1.7-1.4-2.7l3.5,0.1c-0.1,0.7,0.6,1.2,1.9,1.5c0.2,0,0.3,0.1,0.4,0.1c0.7,0,1.4-0.2,2-0.6c0.6-0.5,0.9-1,0.9-1.7
			l0.1-1.8c-0.6,0.7-1.1,1.1-1.5,1.3c-0.6,0.3-1.2,0.5-2,0.4c-0.8,0-1.5-0.2-2-0.4c-0.6-0.2-1.1-0.6-1.6-1.2c-1.1-1.2-1.6-3-1.5-5.1
			c0.1-2.4,0.8-4.2,2.1-5.4c1.1-1.1,2.3-1.5,3.6-1.4c0.9,0.1,1.6,0.3,2.1,0.8c0.1,0.1,0.5,0.6,1.2,1.5L260.3,158.7z M257.3,161.3
			c-1,0-1.7,0.4-2.3,1.2c-0.5,0.7-0.7,1.6-0.8,2.6c0,1,0.1,1.9,0.6,2.7c0.5,0.9,1.2,1.3,2.2,1.4c1,0,1.7-0.4,2.3-1.2
			c0.5-0.7,0.7-1.6,0.8-2.6c0-1-0.1-1.9-0.6-2.7C259,161.8,258.2,161.4,257.3,161.3z"/>
		<path class="st1" d="M277.1,168.1l-8.4-1.2c-0.2,0.8-0.2,1.5,0.1,2.1c0.4,0.9,1.1,1.4,2,1.5c0.5,0.1,1,0,1.5-0.2
			c0.6-0.2,1-0.5,1.1-1l3.2,0.5c-0.4,1.1-1.3,2-2.6,2.6c-1.3,0.6-2.5,0.8-3.7,0.6c-1.3-0.2-2.4-0.7-3.3-1.6
			c-0.9-0.9-1.5-1.9-1.7-3.2c-0.1-0.4-0.1-0.9,0-1.6c0.1-0.9,0.2-1.8,0.5-2.7c1.1-3.4,3.2-4.8,6.4-4.3c2.2,0.3,3.6,1.4,4.4,3.2
			c0.6,1.3,0.7,2.7,0.5,4.3C277.2,167.4,277.2,167.7,277.1,168.1z M269,164.7l5,0.7c0.2-1.7-0.4-2.7-1.9-3c-0.8-0.2-1.5,0-2.1,0.4
			C269.5,163.3,269.2,163.9,269,164.7z"/>
		<path class="st1" d="M281.2,174.4l-3.1-0.9l3.5-12.3l3.1,0.9l-0.5,1.8c1.4-1.1,2.7-1.5,3.8-1.2c1,0.3,1.7,0.7,2.1,1.3
			c0.2,0.3,0.5,0.8,0.9,1.5c0.7-0.5,1.3-0.9,1.9-1c0.6-0.1,1.2-0.1,2,0.1c0.3,0.1,0.6,0.2,0.9,0.3c2,0.9,2.7,2.5,2,4.8l-2.4,8.5
			l-3.1-0.9l2.4-8.4c0.2-0.8-0.2-1.4-1.2-1.7c-0.6-0.2-1.2-0.2-1.8,0.1c-0.6,0.3-0.9,0.8-1.1,1.4l-2.1,7.5l-3.1-0.9l2.4-8.4
			c0.1-0.9-0.4-1.5-1.4-1.8c-0.7-0.2-1.2-0.2-1.7,0.1c-0.5,0.3-0.8,0.8-1,1.5L281.2,174.4z"/>
		<path class="st1" d="M309.7,178.8l-7.8-3.3c-0.4,0.8-0.6,1.4-0.4,2c0.2,0.9,0.7,1.6,1.6,2c0.5,0.2,1,0.3,1.5,0.2
			c0.6-0.1,1.1-0.3,1.3-0.6l3,1.3c-0.7,0.9-1.8,1.6-3.2,1.9c-1.4,0.3-2.6,0.2-3.8-0.3c-1.2-0.5-2.1-1.3-2.8-2.4
			c-0.7-1.1-0.9-2.2-0.8-3.5c0-0.4,0.2-0.9,0.4-1.5c0.3-0.9,0.7-1.7,1.2-2.5c1.9-3,4.3-3.8,7.3-2.6c2,0.9,3.2,2.3,3.5,4.2
			c0.2,1.4,0,2.8-0.6,4.3C310,178.2,309.8,178.5,309.7,178.8z M302.8,173.5l4.7,2c0.7-1.6,0.3-2.7-1.1-3.4c-0.7-0.4-1.4-0.4-2.1-0.2
			C303.6,172.2,303.1,172.7,302.8,173.5z"/>
		<path class="st1" d="M309.2,184.6l6.2-11.2l2.9,1.6l-0.9,1.7c1.3-0.9,2.6-1,3.8-0.3c2.9,1.6,3.6,3.7,2.1,6.3l-4.1,7.5l-2.9-1.6
			l3.8-6.8c0.4-0.7,0.6-1.3,0.6-1.6c0-0.7-0.5-1.2-1.5-1.7c-1.5-0.7-2.5-0.4-3.2,0.7l-4,7.1L309.2,184.6z"/>
		<path class="st1" d="M327.4,180.6l1.3,0.9l1.9-2.9l2.7,1.8l-1.9,2.9l1.5,1l-1.2,1.8l-1.5-1l-4,6c-0.4,0.6-0.5,1-0.1,1.2l1.1,0.7
			l-1.3,1.9c-0.6-0.1-1.1-0.4-1.5-0.6c-1.8-1.1-2.3-2.5-1.5-4.1l4.6-6.9l-1.3-0.9L327.4,180.6z"/>
		<path class="st1" d="M350.2,199.2l-2.5-2.2c0.6-0.6,0.8-1.4,0.5-2.3c-0.2-0.7-0.7-1.4-1.4-2.1c-1.4-1.3-2.7-1.5-3.6-0.6
			c-0.4,0.3-0.6,0.6-0.6,0.9c0,0.3,0.1,0.6,0.3,1.1c0,0.3,0.8,1.5,2.5,3.7c1,1.3,1.6,2.4,1.8,3.4c0.2,1.3-0.1,2.4-1.1,3.5
			c-0.6,0.7-1.3,1.2-2.1,1.5c-0.9,0.4-1.7,0.5-2.5,0.4c-1.4-0.2-3-1.1-4.8-2.7c-0.4-0.4-0.8-0.9-1.3-1.5c-0.6-0.8-0.9-1.5-1.1-2.2
			c-0.4-1.8,0-3.4,1.2-4.9l2.6,2.3c-0.6,0.7-0.8,1.6-0.5,2.5c0.3,0.8,0.8,1.5,1.6,2.2c1.7,1.4,3.1,1.6,4,0.5
			c0.5-0.6,0.6-1.3,0.3-2.2c-0.2-0.5-0.6-1.2-1.3-2c-1.3-1.7-2.1-2.8-2.3-3.1c-1.1-1.9-0.9-3.6,0.4-5.1c1.2-1.3,2.5-1.9,4-1.8
			c1.4,0.1,2.9,0.8,4.4,2.1c2,1.8,3,3.6,2.9,5.5c-0.1,1.1-0.5,2.1-1.2,2.9C350.3,199.1,350.2,199.2,350.2,199.2z"/>
		<path class="st1" d="M352.5,200.5l2.4,2.7l-5.1,8.2l8.7-4.2l2.3,2.5l-15.1,6.2c-0.5,0.3-1.1,0.4-1.9,0.4c-0.8,0-2-0.9-3.5-2.6
			l2-1.8c0.1,0.1,0.2,0.3,0.3,0.4c1,1.1,2,1.3,2.9,0.5c0.2-0.2,0.3-0.4,0.4-0.6L352.5,200.5z"/>
		<path class="st1" d="M354.8,216.6l1.9,2.6c-0.4,0.6-0.6,1.1-0.5,1.7c0,0.4,0.3,0.9,0.7,1.7c0.3,0.5,0.6,0.8,0.9,1
			c0.4,0.2,0.9,0.2,1.3-0.1c0.5-0.4,0.7-0.8,0.5-1.3l-1.5-4c-0.6-1.8-0.3-3.1,0.9-4c1.1-0.9,2.3-1.1,3.5-0.8c1.1,0.3,2,1,2.9,2.2
			c1,1.2,1.5,2.5,1.6,3.7c0.1,1.5-0.4,2.6-1.6,3.5l-1.9-2.6c0.4-0.3,0.6-0.6,0.7-0.9c0.1-0.3,0.1-0.6-0.1-1.1
			c-0.2-0.5-0.3-0.8-0.6-1.1c-0.3-0.4-0.6-0.7-1-0.9c-0.4-0.2-0.8-0.2-1.2,0c-0.3,0.3-0.4,0.6-0.2,1.1l1.8,4.6
			c0.3,0.7,0.3,1.4,0.1,2.1c-0.2,0.7-0.6,1.3-1.2,1.7c-0.7,0.5-1.6,0.8-2.5,0.9c-0.9,0.1-1.7-0.2-2.5-0.7c-0.8-0.5-1.5-1.3-2.2-2.3
			c-0.7-1-1.1-1.8-1.3-2.6C353,219.1,353.4,217.6,354.8,216.6z"/>
		<path class="st1" d="M369.7,222.4l0.8,1.4l2.9-1.8l1.7,2.8l-2.9,1.8l1,1.6l-1.9,1.1l-1-1.6l-6.1,3.8c-0.6,0.4-0.8,0.7-0.6,1.1
			l0.7,1.1l-1.9,1.2c-0.4-0.4-0.8-0.8-1.1-1.2c-1.2-1.7-1.1-3.2,0.3-4.3l7.1-4.3l-0.9-1.4L369.7,222.4z"/>
		<path class="st1" d="M373.2,243.5l-3.8-7.6c-0.8,0.3-1.4,0.7-1.6,1.3c-0.4,0.9-0.5,1.7,0,2.5c0.2,0.4,0.6,0.8,1,1.1
			c0.5,0.4,1,0.5,1.4,0.4l1.5,2.9c-1.1,0.3-2.4,0.1-3.7-0.6c-1.2-0.7-2.1-1.6-2.7-2.7c-0.6-1.1-0.8-2.4-0.6-3.6
			c0.2-1.3,0.7-2.3,1.7-3.2c0.3-0.3,0.7-0.6,1.3-0.9c0.8-0.5,1.6-0.9,2.5-1.1c3.4-1.1,5.8-0.1,7.3,2.7c1,1.9,1,3.8,0,5.5
			c-0.7,1.2-1.8,2.1-3.2,2.9C373.9,243.2,373.6,243.4,373.2,243.5z M371.4,235l2.3,4.5c1.5-0.8,2-1.9,1.3-3.3
			c-0.3-0.7-0.8-1.2-1.5-1.5C372.8,234.5,372.1,234.6,371.4,235z"/>
		<path class="st1" d="M370.4,250.5l-1.1-3.1l12-4.3l1.1,3.1l-1.8,0.6c1.7,0.5,2.8,1.3,3.2,2.4c0.3,0.9,0.4,1.8,0.2,2.5
			c-0.1,0.3-0.3,0.8-0.8,1.6c0.8,0.2,1.4,0.6,1.9,0.9c0.4,0.4,0.8,1,1.1,1.7c0.1,0.3,0.2,0.6,0.3,0.9c0.5,2.1-0.5,3.6-2.8,4.4
			l-8.3,3l-1.1-3.1l8.3-2.9c0.8-0.3,1-0.9,0.7-2c-0.2-0.7-0.6-1.1-1.1-1.4s-1.2-0.3-1.8-0.1l-7.3,2.6l-1.1-3.1l8.3-2.9
			c0.8-0.5,1-1.2,0.7-2.2c-0.2-0.7-0.6-1.1-1.1-1.3c-0.5-0.2-1.1-0.2-1.8,0L370.4,250.5z"/>
	</g>
	<g>
		<path class="st1" d="M210.9,429.6l3.6,1.4c-0.4,0.9-0.9,1.7-1.7,2.5c-0.8,0.8-1.7,1.3-2.6,1.6c-1.8,0.6-3.8,0.5-6-0.2
			c-2-0.7-3.5-1.9-4.4-3.6c-0.9-1.6-1.2-3.5-1-5.6c0.1-1,0.4-2.1,0.9-3.3c0.5-1.4,1.1-2.5,1.7-3.3c2.7-3.6,6.1-4.6,10.1-3.1
			c1.9,0.7,3.3,1.8,4.3,3.2c1.3,1.9,1.6,3.9,0.9,6.1l-3.5-1.3c0.2-0.8,0.2-1.7-0.2-2.5c-0.5-1.2-1.5-2-3.2-2.5
			c-0.8-0.2-1.7-0.2-2.5,0.1c-0.8,0.3-1.6,0.8-2.2,1.5c-0.6,0.7-1.2,1.6-1.7,2.9c-0.6,1.4-0.9,2.7-0.9,4c0,1.6,0.6,2.8,1.6,3.6
			c0.3,0.2,0.7,0.5,1.1,0.7c0.5,0.2,1.1,0.3,1.6,0.4c1.2,0.1,2.2-0.1,2.9-0.8C210.1,430.8,210.5,430.3,210.9,429.6z"/>
		<path class="st1" d="M230.2,435.2l-9.3-2.1c-0.3,0.9-0.3,1.7-0.1,2.3c0.4,1,1.1,1.6,2.2,1.9c0.6,0.1,1.1,0.1,1.7,0
			c0.7-0.2,1.1-0.5,1.4-1l3.6,0.8c-0.6,1.2-1.6,2.1-3.2,2.7c-1.5,0.6-2.9,0.7-4.2,0.4c-1.4-0.3-2.6-1-3.6-2.1
			c-1-1.1-1.5-2.3-1.6-3.7c0-0.4,0-1,0.1-1.8c0.1-1,0.4-2,0.8-3c1.5-3.7,4.1-5.1,7.6-4.3c2.4,0.5,4,1.9,4.7,4
			c0.5,1.5,0.6,3.1,0.2,4.9C230.4,434.5,230.3,434.8,230.2,435.2z M221.4,430.7l5.6,1.3c0.4-1.9-0.2-3.1-1.9-3.5
			c-0.9-0.3-1.7-0.2-2.4,0.3C222.1,429.1,221.6,429.7,221.4,430.7z"/>
		<path class="st1" d="M233.2,441.7l1.8-14.3l3.7,0.5l-0.3,2.8c0.4-0.7,1-1.4,1.8-1.9c0.9-0.5,1.7-0.8,2.5-0.7
			c0.2,0,0.3,0.1,0.5,0.1l-0.5,3.8c-0.5-0.1-0.9-0.2-1.3-0.2c-1.8-0.2-3,0.6-3.5,2.4l-1,8L233.2,441.7z"/>
		<path class="st1" d="M244.4,428.8l1.8,0.1l0.2-3.9l3.7,0.2l-0.2,3.9l2.1,0.1l-0.1,2.5l-2.1-0.1l-0.4,8.1c0,0.8,0.2,1.3,0.6,1.3
			l1.5,0.1l-0.1,2.5c-0.6,0.2-1.2,0.3-1.8,0.3c-2.4,0-3.7-1-3.9-3l0.4-9.3l-1.8-0.1L244.4,428.8z"/>
		<path class="st1" d="M255.1,427.2l-0.1-3.3l3.7-0.1l0.1,3.3L255.1,427.2z M255.4,443.2l-0.3-14.4l3.7-0.1l0.3,14.4L255.4,443.2z"
			/>
		<path class="st1" d="M261.8,431.4l-0.2-2.5l2-0.2l-0.2-1.7c-0.2-2.4,0.8-3.7,3.2-3.9l2.3-0.2l0.2,2.7l-1.3,0.1
			c-0.5,0-0.8,0.4-0.7,1l0.1,1.5l2.2-0.2l0.2,2.5l-2.2,0.2l1,11.6l-3.7,0.3l-1-11.6L261.8,431.4z"/>
		<path class="st1" d="M272,426l-0.5-3.3l3.6-0.6l0.5,3.3L272,426z M274.5,441.8l-2.3-14.2l3.6-0.6l2.3,14.2L274.5,441.8z"/>
		<path class="st1" d="M293.7,431.5l-9.3,2.3c0.1,1,0.5,1.7,1,2.1c0.8,0.7,1.8,0.9,2.8,0.7c0.5-0.1,1-0.4,1.5-0.8
			c0.5-0.5,0.8-1,0.8-1.5l3.5-0.9c0,1.3-0.5,2.6-1.6,3.9c-1.1,1.2-2.2,1.9-3.6,2.3c-1.4,0.4-2.8,0.3-4.1-0.2
			c-1.3-0.5-2.4-1.4-3.1-2.6c-0.2-0.4-0.4-0.9-0.7-1.6c-0.3-1-0.5-2-0.6-3c-0.3-4,1.3-6.4,4.8-7.3c2.4-0.6,4.4-0.1,6,1.4
			c1.1,1.1,1.9,2.5,2.4,4.2C293.6,430.7,293.6,431.1,293.7,431.5z M283.9,431.4l5.5-1.4c-0.5-1.9-1.6-2.6-3.3-2.3
			c-0.9,0.2-1.6,0.6-2,1.3C283.7,429.7,283.6,430.5,283.9,431.4z"/>
		<path class="st1" d="M304.6,413.3l7,18.1l-3.4,1.3l-0.5-1.4c-0.4,1.5-1.3,2.6-2.7,3.2c-1.2,0.5-2.3,0.7-3.2,0.5
			c-1-0.2-1.9-0.8-2.8-1.7c-1.1-1.1-1.9-2.2-2.5-3.3c-0.6-1.4-0.9-2.9-0.8-4.7c0.1-2.2,1.3-3.8,3.4-4.8c1.8-0.8,3.4-0.6,4.6,0.6
			l-2.5-6.5L304.6,413.3z M301.1,423.1c-1,0.4-1.6,1.2-1.8,2.4c-0.1,0.9,0,1.9,0.4,2.9c0.4,1,0.9,1.8,1.6,2.4c0.9,0.8,1.9,1,2.9,0.6
			c1-0.4,1.6-1.2,1.7-2.4c0.1-0.9,0-1.9-0.4-2.9c-0.4-1-0.9-1.8-1.6-2.4C303.1,422.9,302.1,422.7,301.1,423.1z"/>
	</g>
</g>
<g>
	<g>
		<path class="st0" d="M688.8,260c-1.9-4.9-5.7-9.3-10.4-12.5c-13.5-8.6-34.1-9.2-48.1-1.4c-7.6,3.9-12.6,11.6-14.2,19.4
			c-2.8,13-2.1,28.4,7.9,38.1c11.7,10.2,28.6,12.5,43.7,8.3c0.7-0.1,3-0.7,4.6-1.5l0.4-0.2c4.7-1.9,9.2-5.1,12.5-9.4
			C693,289.5,693.5,272.6,688.8,260z M664.2,289.1c-0.5,2.5-2.2,5-4.8,5.9c-4.2,1.8-9.8,1.3-13.6-0.8c-3.2-2.3-3.6-6-4.1-9.6
			c-0.3-7.1-0.8-14.5,1.2-21c1.5-4,5.8-5,9.7-5.3c4.1,0,8,0.6,10.5,3.9c1.6,2.3,1.5,5.4,1.8,8.2
			C664.8,276.2,665.3,283.2,664.2,289.1z"/>
		<path class="st0" d="M540.9,295.5c-3.4-0.2-7.3,0.1-10.6-0.3l0.1-35.9l0.2-0.3l10.3-0.1c0.1-5.8,0.2-12.1-0.1-17.4l-39.2-0.1
			l-6.5,0.1c-0.1,5.4-0.1,11.8,0,17.3c3.5,0.1,6.9,0,10.3,0.3v34.8l-0.1,1.4l-10.3,0.2c-0.2,5.7-0.2,11.2,0,16.9h45.9V295.5z"/>
		<path class="st0" d="M656.4,320c-4.4,6.2-9.9,12.3-15.9,17c-0.2,0.3-0.8,0.2-1-0.1c-2.6-1.6-5.4-3-7.9-4.6c3.3-4,6.6-8,9.1-12.4
			h-3.2c-2.6,3.8-5.3,7.8-8.7,11.2c-4.6-1.8-8.7-3.5-13.4-4.7l-0.5-0.4c0.7-2.1,2.1-4,2.5-6.1h-2.8l-2.8,5.5
			c-6.1-1.3-12.9-2-19.2-2.5c-0.3-0.9,0.1-2.2-0.3-3.1h-2.7c-0.2,1.2,0.3,2.2-0.3,3.2c-6.5,0.3-12.7,1-18.7,2.3l-2.8-5.4
			c-1,0-2.2-0.2-2.9,0.1l2.6,6l-0.3,0.3c-4.7,1.3-9.3,3-13.7,4.8l-0.4-0.2c-2.9-3.2-5.7-6.6-8-10.1c-0.5-1.7-2.6-0.7-3.7-0.9
			c2.5,4.5,5.8,8.5,9.2,12.6c-2.8,1.6-5.6,3.5-8.5,4.8c-6.2-4.7-12.1-10.8-16.4-17.3c-1.3-0.2-2.1-0.1-3.3,0
			c7.5,11.7,19.2,21.9,31.3,27.9c0,0,0-0.1,0.1-0.1c0.1,0,0.3,0.2,0.1,0.3c8.2,4,17,6.9,26.2,8.1c32,4.2,62.5-9.4,80.2-36.2
			C658.8,319.9,657.5,319.9,656.4,320z M613,329.2l0.3-0.2c4.5,1,8.7,2.5,12.7,4.4c-3.3,3.8-7.6,7.1-11.6,9.8
			c-2.4,1.4-4.8,3-7.3,4.2l-4.5-1.9l0.3-0.7C606.8,339.8,610.1,334.6,613,329.2z M592.5,326.1c5.9,0.1,11.9,0.7,17.4,2l0.1,0.3
			c-2.9,5.5-6.6,10.8-10.5,15.9c-1.8,0.2-3.4-0.5-5.2-0.6l-1.8-0.2C592.3,337.5,592.2,332.2,592.5,326.1z M572.4,328
			c5.4-1,11-1.8,16.9-1.8l0.1,17.3c-2.2,0.5-4.6,0.5-6.7,1c-4.3-5-7.8-10.5-10.8-16.1L572.4,328z M555.7,333.5
			c4.1-2,8.3-3.4,12.7-4.5l0.4,0.1c3,5.6,6.8,10.9,10.5,16.3c-1.5,0.8-3.2,1.3-4.7,2.1c-6.9-3.4-13.4-8.1-19-13.7V333.5z M569.1,351
			c-8.7-2.3-16.9-6.1-24.4-11.5v-0.3c2.5-1.5,5-3.2,7.7-4.3c5.9,5.8,12.1,10.2,18.7,14.4C570.7,350,569.8,350.6,569.1,351z
			 M607.7,352.3c-11,2.4-23.3,2.5-34.4-0.2c-0.2-0.5,0.5-0.6,0.8-0.9c9.7-6.2,24.8-6.2,34.3,0.5
			C608.8,352.3,607.9,352.1,607.7,352.3z M617.7,349.5l-4.9,1.5c-0.8-0.4-1.6-1-2.3-1.6l0.2-0.3c6.7-3.9,12.7-8.6,18.4-14.2
			c2.8,1.1,5.5,2.7,8,4.4C631.4,343.9,624.6,346.9,617.7,349.5z"/>
		<path class="st0" d="M525,233.6c2.5-3.5,5.3-6.9,8.4-10.1c2.7-2.6,5.2-5,8.1-6.9c2.7,1.7,5.7,3.2,8.3,4.8c-3.2,4-6.6,8-9,12.3
			c0.7,0.3,2.1,0.2,3.1,0c2.6-3.8,5.4-7.6,8.7-10.9c4.5,1.6,8.8,3.4,13.4,4.6l0.4,0.4l-2.6,5.9c1.2,0.2,1.9,0.1,3,0
			c0.9-1.7,1.7-3.7,2.7-5.4c6,1.3,12.4,2,18.9,2.2c0.8,0.7,0.2,2.3,0.5,3.2h2.8c0.3-1-0.1-2.1,0.3-3.1c6-0.3,12.4-0.9,18.2-2.4
			l0.5,0.1l2.8,5.3c0.9,0,2.2,0.2,2.9-0.2l-2.6-5.9l0.2-0.2c4.8-1.2,9.3-3.1,13.8-4.9c3.2,3.4,6.2,7.4,9,11.2c1.1,0,2.3,0.1,3.1-0.2
			c-1.3-2.2-2.8-4.5-4.5-6.4c-1.4-1.9-2.8-3.7-4.6-5.5V221l7.3-4.2l1.1-0.4c6.3,4.8,12,10.6,16.4,17.1c1.3,0,2.3,0.4,3.3-0.1
			c-14-20.9-37-34.3-61.8-36.2l-0.1,0.2l-0.2-0.2c-2.8-0.3-6.3-0.4-9.3-0.1c-1.1-0.1-2.5,0-3.9,0.1c-25,1.9-48,14.7-62.4,36.5
			C522.7,233.6,523.9,234,525,233.6z M568.2,224.6l-0.4,0.1c-4.3-1.1-8.4-2.5-12.4-4.2l0.2-0.6c5.7-5.4,11.8-9.9,18.4-13.4
			c1.6,0.6,3.1,1.1,4.7,1.8l-0.3,0.8C574.4,214,571.3,219.3,568.2,224.6z M588.9,227.3c-2.9,0.4-5.5-0.1-8.4-0.3
			c-2.8-0.4-6.3-0.7-9.2-1.6c3-5.6,6.6-11,10.8-16l6.7,0.9C589.1,215.6,588.9,221.7,588.9,227.3z M592.1,227.4
			c-0.2-5.4-0.1-11.5,0-17.1c2.1-0.3,4.4-0.6,6.5-0.9c4.1,5.1,8,10.3,10.7,15.9C603.7,226.7,597.9,227.4,592.1,227.4z M625.3,220.3
			c-4.1,1.7-8.2,3.4-12.7,4.3c-3.2-5.4-6.8-10.8-10.7-16.1c1.5-0.8,3.2-1.4,4.8-2.2c6.8,3.4,13.3,8.2,18.8,13.7L625.3,220.3z
			 M612,202.8c8.7,2.3,17,6.1,24.5,11.5l-0.2,0.4l-7.2,4h-0.5c-5.5-5.5-12-10.3-18.5-14.1C610.2,203.8,611.3,203.3,612,202.8z
			 M607.8,201.8v0.2c-9.1,6.5-23.7,7.2-33.3,1.1c-0.5-0.4-1.6-0.6-1.7-1.3C583.9,199.2,596.9,199,607.8,201.8z M544.3,214.4
			c6.6-4.8,13.8-8.4,21.6-10.8c0.3-0.3,0.5-0.6,0.9-0.6v0.2c0.8,0.2,1.5-0.7,2.2-0.1c0.6,0.5,1.4,0.9,1.9,1.4
			c-6.5,4-12.8,8.7-18.6,14.4c-2.8-1-5.4-2.5-7.9-4.3V214.4z"/>
		<path class="st0" d="M589,296.3c-9.8,2.7-20.4,0.6-27.5-6.7c-0.8-1-1.4-2.2-2.2-3.3l-14,0.1c-0.2,8.3-0.3,17.8,0,26l15.6-0.1
			l0.2-4.9c1.8,0.8,3.5,1.8,5.3,2.8c10.8,4.5,24.8,5.5,35.5,0c7.8-4.3,12-12.6,10.8-21.5c-1.1-8.7-9.5-16.6-17.9-18.7l-25.2-7.3
			l-1.9-0.9c-0.8-0.7-1.4-1.6-1.2-2.8c2-3.4,6.6-2.3,10-2.3c7.3,1,14.8,3.5,19.1,10.1c4.6,0,9.9,0.1,14.9-0.1
			c0.2-8.4-0.1-15.7-0.2-24.2c-4.7-0.1-10.4-0.1-15.1,0.1c-0.2,1.2,0.2,2.9-0.3,4.2l-4.8-2.6c-11.5-4.8-27.5-5.3-37.9,2.2
			c-6.8,4.9-8.8,13.7-7.1,21.5c1.4,7.4,8.4,12.8,15.2,15.3c9.3,3.3,18.9,5.6,28.3,8.8c0.9,0.4,2.2,1.3,2,2.5
			C590.7,295.3,589.7,295.9,589,296.3z"/>
	</g>
	<g>
		<path class="st1" d="M536.6,394.1v-3l3.1-2.9c6.2-5.7,9.1-8.9,9.1-12.3c0-2.3-1.3-4.4-4.7-4.4c-2.3,0-4.3,1.2-5.6,2.2l-1.5-3.5
			c1.9-1.5,4.8-2.7,8.1-2.7c5.8,0,8.6,3.7,8.6,7.9c0,4.6-3.3,8.3-7.9,12.5l-2.3,2v0.1h10.8v4.1H536.6z"/>
		<path class="st1" d="M558.2,394.1v-3l3.1-2.9c6.2-5.7,9.1-8.9,9.1-12.3c0-2.3-1.3-4.4-4.7-4.4c-2.3,0-4.3,1.2-5.6,2.2l-1.5-3.5
			c1.9-1.5,4.8-2.7,8.1-2.7c5.8,0,8.6,3.7,8.6,7.9c0,4.6-3.3,8.3-7.9,12.5l-2.3,2v0.1H576v4.1H558.2z"/>
		<path class="st1" d="M598.4,380.8c0,8.4-3.3,13.7-9.6,13.7c-6.1,0-9.3-5.5-9.3-13.5c0-8.2,3.5-13.6,9.6-13.6
			C595.4,367.4,598.4,373.1,598.4,380.8z M584.5,381.1c0,6.4,1.7,9.7,4.5,9.7c2.9,0,4.4-3.6,4.4-9.8c0-6.1-1.5-9.7-4.4-9.7
			C586.3,371.2,584.5,374.5,584.5,381.1z"/>
		<path class="st1" d="M620,380.8c0,8.4-3.3,13.7-9.6,13.7c-6.1,0-9.3-5.5-9.3-13.5c0-8.2,3.5-13.6,9.6-13.6
			C617.1,367.4,620,373.1,620,380.8z M606.1,381.1c0,6.4,1.7,9.7,4.5,9.7c2.9,0,4.4-3.6,4.4-9.8c0-6.1-1.5-9.7-4.4-9.7
			C607.9,371.2,606.1,374.5,606.1,381.1z"/>
		<path class="st1" d="M641.6,380.8c0,8.4-3.3,13.7-9.6,13.7c-6.1,0-9.3-5.5-9.3-13.5c0-8.2,3.5-13.6,9.6-13.6
			C638.7,367.4,641.6,373.1,641.6,380.8z M627.7,381.1c0,6.4,1.7,9.7,4.5,9.7c2.9,0,4.4-3.6,4.4-9.8c0-6.1-1.5-9.7-4.4-9.7
			C629.6,371.2,627.7,374.5,627.7,381.1z"/>
	</g>
	<path class="st0" d="M589,416.8c-65.6,0-118.9-53.3-118.9-118.9S523.4,178.9,589,178.9c65.6,0,118.9,53.3,118.9,118.9
		S654.6,416.8,589,416.8z M589,182.5c-63.6,0-115.3,51.7-115.3,115.3S525.4,413.2,589,413.2c63.6,0,115.3-51.7,115.3-115.3
		S652.6,182.5,589,182.5z"/>
	<path class="st2" d="M589,455.8c-87.1,0-158-70.9-158-158s70.9-158,158-158c87.1,0,158,70.9,158,158S676.1,455.8,589,455.8z
		 M589,143.6c-85.1,0-154.3,69.2-154.3,154.3S503.9,452.1,589,452.1c85.1,0,154.3-69.2,154.3-154.3S674.1,143.6,589,143.6z"/>
	<g>
		<path class="st1" d="M446,272.1l2.7-11.8l2.9,0.7l-1.9,8.3l3.8,0.9l1.7-7.3l2.9,0.7l-1.7,7.3l7.2,1.6l-0.8,3.4L446,272.1z"/>
		<path class="st1" d="M468.3,257.4c-0.7,1.9-1.8,3.2-3.3,3.8c-1.5,0.6-3.2,0.6-5.1-0.1c-2-0.7-3.3-1.7-4.1-3.1
			c-0.8-1.4-0.9-3.1-0.2-5c0.7-1.9,1.8-3.2,3.3-3.8c1.5-0.6,3.2-0.6,5.1,0.1s3.3,1.7,4.1,3.1C468.8,253.8,468.9,255.5,468.3,257.4z
			 M458.2,253.9c-0.3,0.9-0.2,1.8,0.5,2.6c0.5,0.7,1.3,1.2,2.3,1.5c1,0.3,1.9,0.4,2.7,0.2c1-0.2,1.6-0.8,2-1.7
			c0.3-0.9,0.2-1.8-0.5-2.6c-0.5-0.7-1.3-1.2-2.3-1.5c-1-0.3-1.9-0.4-2.7-0.2C459.1,252.4,458.5,253,458.2,253.9z"/>
		<path class="st1" d="M473.5,244.5c-0.9,1.8-2.1,3-3.7,3.5c-1.5,0.4-3.2,0.2-5.1-0.7c-1.9-0.9-3.1-2.1-3.8-3.6
			c-0.6-1.5-0.5-3.2,0.3-5c0.9-1.8,2.1-3,3.7-3.5c1.5-0.4,3.2-0.2,5.1,0.7c1.9,0.9,3.1,2.1,3.8,3.5
			C474.5,241,474.3,242.7,473.5,244.5z M463.8,240c-0.4,0.9-0.3,1.8,0.2,2.6c0.5,0.7,1.2,1.3,2.1,1.7c0.9,0.4,1.8,0.6,2.7,0.5
			c1-0.1,1.7-0.6,2.1-1.5c0.4-0.9,0.3-1.8-0.2-2.6c-0.5-0.7-1.2-1.3-2.1-1.7c-0.9-0.4-1.8-0.6-2.7-0.5
			C464.9,238.6,464.2,239.1,463.8,240z"/>
		<path class="st1" d="M468,218.2l14.7,9L481,230l-1.1-0.7c0.5,1.3,0.5,2.5-0.2,3.7c-0.6,1-1.2,1.7-2,2.1c-0.8,0.4-1.8,0.5-2.9,0.3
			c-1.4-0.2-2.5-0.5-3.5-1c-1.2-0.6-2.2-1.6-3.1-2.9c-1.1-1.6-1.2-3.4-0.2-5.3c0.9-1.6,2-2.3,3.6-2.1l-5.2-3.2L468,218.2z
			 M470.8,227c-0.5,0.8-0.5,1.7,0.1,2.6c0.4,0.7,1,1.3,1.8,1.8c0.8,0.5,1.6,0.8,2.4,0.8c1.1,0.1,1.9-0.3,2.4-1.1
			c0.5-0.8,0.5-1.7-0.1-2.6c-0.4-0.7-1-1.3-1.8-1.8c-0.8-0.5-1.6-0.8-2.4-0.8C472.1,225.8,471.3,226.2,470.8,227z"/>
		<path class="st1" d="M487.2,202.4l-2.2,2.5c-0.6-0.6-1.4-0.8-2.3-0.5c-0.7,0.2-1.4,0.7-2.1,1.4c-1.3,1.5-1.5,2.7-0.6,3.6
			c0.3,0.4,0.7,0.6,0.9,0.6c0.3,0,0.6-0.1,1.1-0.3c0.3,0,1.5-0.9,3.6-2.6c1.3-1,2.4-1.7,3.4-1.9c1.3-0.3,2.4,0.1,3.6,1.1
			c0.7,0.6,1.2,1.3,1.5,2.1c0.4,0.9,0.5,1.7,0.4,2.5c-0.2,1.4-1.1,3-2.6,4.8c-0.3,0.4-0.8,0.9-1.5,1.3c-0.8,0.6-1.5,0.9-2.2,1.1
			c-1.8,0.4-3.4,0-4.9-1.1l2.3-2.6c0.7,0.6,1.6,0.8,2.5,0.5c0.8-0.3,1.5-0.8,2.2-1.6c1.4-1.7,1.6-3.1,0.5-4.1
			c-0.6-0.5-1.3-0.6-2.2-0.3c-0.5,0.2-1.2,0.6-2,1.3c-1.7,1.3-2.7,2.1-3.1,2.3c-1.9,1.1-3.6,1-5.1-0.3c-1.3-1.2-2-2.5-1.9-4
			c0.1-1.4,0.7-2.9,2.1-4.4c1.8-2,3.6-3,5.4-2.9c1.1,0.1,2.1,0.4,2.9,1.1C487.1,202.2,487.2,202.3,487.2,202.4z"/>
		<path class="st1" d="M506,201.2l-2.6,2.4c-0.4-0.1-0.8-0.3-1.1-0.7c-0.1,1.8-0.7,3.1-1.7,4c-2,1.8-3.8,1.7-5.5-0.3
			c-1.5-1.7-1.5-3.6,0-5.5c0.9-0.9,1.5-1.8,2-2.7c0.3-0.5,0.2-1.1-0.4-1.6c-0.3-0.3-0.7-0.4-1.2-0.2c-0.4,0.2-0.8,0.4-1.1,0.8
			c-1,1-1,2-0.2,3l-2.3,2.1c-2-2.2-1.7-4.5,0.9-6.8c2.6-2.4,4.8-2.6,6.6-0.6l4.7,5.1c0.4,0.4,0.9,0.6,1.6,0.6L506,201.2z
			 M499.6,199.9l-0.5-0.5c-0.1,0.4-0.4,0.9-0.8,1.4c-0.3,0.3-0.6,0.7-0.9,1.1c-0.3,0.4-0.5,0.8-0.5,1.2c0,0.4,0.1,0.8,0.4,1.1
			c0.3,0.4,0.7,0.5,1.1,0.5c0.4,0,0.8-0.2,1.2-0.5c0.2-0.1,0.3-0.3,0.4-0.4C500.9,202.5,500.8,201.3,499.6,199.9z"/>
		<path class="st1" d="M500.3,192.7l-1.4-1.7l1.4-1.1l-0.9-1.2c-1.3-1.7-1.1-3.1,0.5-4.4l1.6-1.3l1.5,1.9l-0.9,0.7
			c-0.4,0.3-0.4,0.7,0,1.1l0.8,1.1l1.6-1.2l1.4,1.7l-1.6,1.2l6.4,8.1l-2.6,2l-6.4-8.1L500.3,192.7z"/>
		<path class="st1" d="M519.5,185l-7.1,4.7c0.4,0.8,0.9,1.3,1.5,1.5c0.9,0.3,1.7,0.3,2.5-0.3c0.4-0.3,0.8-0.7,1-1.1
			c0.3-0.6,0.4-1,0.2-1.5l2.7-1.8c0.4,1.1,0.3,2.3-0.2,3.7c-0.5,1.3-1.3,2.3-2.3,3c-1.1,0.7-2.2,1.1-3.5,1c-1.3,0-2.4-0.4-3.4-1.3
			c-0.3-0.2-0.6-0.6-1.1-1.2c-0.6-0.7-1-1.5-1.4-2.3c-1.4-3.2-0.8-5.7,1.9-7.5c1.8-1.2,3.6-1.4,5.4-0.6c1.3,0.6,2.3,1.5,3.2,2.9
			C519.2,184.4,519.3,184.6,519.5,185z M511.2,187.8l4.2-2.8c-0.9-1.4-2.1-1.7-3.4-1c-0.7,0.4-1.1,1-1.3,1.7
			C510.6,186.4,510.8,187.1,511.2,187.8z"/>
		<path class="st1" d="M517.1,178.2l1.4-0.8l-1.7-3l2.9-1.6l1.7,3l1.6-0.9l1.1,1.9l-1.6,0.9l3.5,6.3c0.4,0.6,0.7,0.9,1,0.7l1.1-0.6
			l1.1,2c-0.4,0.4-0.8,0.8-1.2,1c-1.8,1.1-3.2,0.9-4.3-0.5l-4-7.3l-1.4,0.8L517.1,178.2z"/>
		<path class="st1" d="M524.3,173.8l3.3-1.5l6.4,7.3l-1.4-9.5l3.1-1.4l1.5,16.2c0.1,0.6,0,1.2-0.2,1.9c-0.3,0.8-1.5,1.7-3.5,2.6
			l-1.1-2.4c0.2-0.1,0.3-0.1,0.5-0.2c1.4-0.6,1.8-1.5,1.4-2.6c-0.1-0.2-0.2-0.4-0.4-0.6L524.3,173.8z"/>
		<path class="st1" d="M558,174.9l-3.4,0.9l-6.5-12.7l3.5,13.4l-3.4,0.9l-4.3-16.6l5-1.3l6.4,12l-0.2-13.6l5-1.3l4.3,16.6l-3.4,0.9
			l-3.5-13.4L558,174.9z"/>
		<path class="st1" d="M577.5,171.6l-3.5,0.4c-0.3-0.3-0.5-0.7-0.5-1.2c-1.1,1.4-2.4,2.2-3.7,2.3c-2.7,0.3-4.1-0.8-4.4-3.4
			c-0.2-2.3,0.8-3.8,3.1-4.5c1.2-0.2,2.3-0.5,3.2-1c0.5-0.3,0.8-0.8,0.6-1.5c-0.1-0.4-0.4-0.7-0.9-0.9c-0.4-0.1-0.9-0.1-1.4,0
			c-1.4,0.2-2,1-1.9,2.3l-3.1,0.4c-0.4-2.9,1.2-4.6,4.7-5.1c3.5-0.5,5.4,0.7,5.8,3.3l0.9,6.9c0.1,0.6,0.4,1,0.9,1.4L577.5,171.6z
			 M573,166.8l-0.1-0.7c-0.4,0.3-0.9,0.5-1.5,0.7c-0.4,0.1-0.9,0.2-1.4,0.3c-0.5,0.2-0.9,0.4-1.1,0.7c-0.2,0.3-0.3,0.7-0.3,1.1
			c0.1,0.5,0.3,0.8,0.6,1.1c0.3,0.2,0.7,0.3,1.2,0.3c0.2,0,0.4-0.1,0.6-0.1C572.6,169.7,573.3,168.6,573,166.8z"/>
		<path class="st1" d="M579.3,171.4l-0.3-12.8l3.3-0.1l0,1.9c0.7-1.4,1.7-2.2,3.1-2.2c3.3-0.1,4.9,1.4,5,4.3l0.2,8.5l-3.3,0.1
			l-0.2-7.8c0-0.8-0.1-1.4-0.3-1.7c-0.3-0.6-1.1-0.8-2.1-0.7c-1.6,0.2-2.4,0.9-2.4,2.2l0.2,8.1L579.3,171.4z"/>
		<path class="st1" d="M604.1,172.1l-3.5-0.3c-0.2-0.4-0.3-0.8-0.2-1.3c-1.4,1.1-2.8,1.6-4.1,1.5c-2.7-0.2-3.9-1.6-3.6-4.3
			c0.3-2.3,1.6-3.5,4-3.7c1.2,0.1,2.3-0.1,3.4-0.3c0.6-0.2,0.9-0.6,0.9-1.4c0-0.5-0.2-0.8-0.7-1c-0.4-0.2-0.8-0.3-1.3-0.3
			c-1.4,0-2.2,0.6-2.3,1.9l-3.1-0.2c0.3-3,2.1-4.3,5.6-4c3.5,0.3,5.2,1.8,5,4.5l-0.6,6.9c0,0.6,0.2,1.1,0.6,1.6L604.1,172.1z
			 M600.7,166.6l0.1-0.7c-0.4,0.2-1,0.3-1.6,0.4c-0.5,0-0.9,0-1.4,0.1c-0.5,0.1-0.9,0.2-1.2,0.5c-0.3,0.3-0.5,0.6-0.5,1
			c0,0.5,0.1,0.9,0.4,1.2c0.3,0.3,0.7,0.5,1.2,0.5c0.2,0,0.4,0,0.6,0C599.7,169.3,600.6,168.3,600.7,166.6z"/>
		<path class="st1" d="M616.3,161.3l3,0.6l-2.4,12.9c-0.3,1.7-1.2,2.8-2.7,3.4c-1.3,0.5-3.1,0.5-5.2,0c-1.1-0.2-2-0.8-2.8-1.6
			c-0.9-0.9-1.3-1.9-1-2.9l3.4,0.6c-0.2,0.7,0.4,1.3,1.7,1.7c0.2,0.1,0.3,0.1,0.4,0.1c0.7,0.1,1.4,0,2-0.4c0.7-0.4,1-0.9,1.2-1.6
			l0.3-1.8c-0.7,0.6-1.3,0.9-1.7,1.1c-0.6,0.2-1.3,0.3-2.1,0.1c-0.8-0.2-1.5-0.4-1.9-0.6c-0.5-0.3-1-0.8-1.4-1.4
			c-0.9-1.4-1.2-3.2-0.8-5.3c0.4-2.3,1.4-4,2.9-5c1.3-0.9,2.5-1.2,3.8-0.9c0.9,0.2,1.5,0.6,2,1.1c0.1,0.1,0.4,0.7,1,1.6L616.3,161.3
			z M612.9,163.5c-0.9-0.2-1.8,0.1-2.5,0.9c-0.6,0.6-1,1.5-1.1,2.5c-0.2,1-0.1,1.9,0.2,2.7c0.4,1,1,1.5,2,1.7
			c0.9,0.2,1.8-0.1,2.5-0.9c0.6-0.6,1-1.5,1.1-2.5c0.2-1,0.1-1.9-0.2-2.7C614.5,164.2,613.8,163.7,612.9,163.5z"/>
		<path class="st1" d="M631.6,173l-8.1-2.4c-0.3,0.8-0.4,1.5-0.2,2.1c0.3,0.9,0.9,1.5,1.8,1.8c0.5,0.1,1,0.2,1.5,0.1
			c0.6-0.1,1-0.4,1.3-0.8l3.1,0.9c-0.6,1-1.6,1.8-3,2.2c-1.3,0.4-2.6,0.5-3.8,0.1c-1.2-0.4-2.3-1-3.1-2c-0.8-1-1.2-2.1-1.2-3.4
			c0-0.4,0.1-0.9,0.2-1.6c0.2-0.9,0.5-1.8,0.9-2.6c1.5-3.2,3.9-4.3,7-3.4c2.1,0.6,3.4,1.9,3.9,3.8c0.4,1.3,0.3,2.8-0.1,4.3
			C631.8,172.4,631.7,172.7,631.6,173z M624.1,168.5l4.9,1.4c0.5-1.6,0-2.7-1.5-3.2c-0.8-0.3-1.5-0.2-2.1,0.1
			C624.7,167.2,624.3,167.7,624.1,168.5z"/>
		<path class="st1" d="M634.7,179.9l-3-1.3l5.2-11.7l3,1.3l-0.8,1.7c1.5-0.9,2.8-1.1,3.9-0.6c0.9,0.4,1.5,0.9,1.9,1.6
			c0.2,0.3,0.4,0.8,0.6,1.6c0.7-0.4,1.4-0.7,2-0.7c0.6-0.1,1.3,0.1,2,0.4c0.3,0.1,0.5,0.3,0.9,0.5c1.9,1.1,2.3,2.8,1.3,5.1l-3.6,8.1
			l-3-1.3l3.5-8c0.3-0.7,0-1.4-1-1.9c-0.6-0.3-1.2-0.4-1.8-0.1c-0.6,0.2-1,0.6-1.3,1.3l-3.2,7.1l-3-1.3l3.5-8c0.2-0.9-0.2-1.5-1.1-2
			c-0.6-0.3-1.2-0.3-1.8-0.1c-0.5,0.2-1,0.7-1.2,1.3L634.7,179.9z"/>
		<path class="st1" d="M662.3,188.3l-7.2-4.4c-0.5,0.7-0.8,1.3-0.7,2c0.1,1,0.5,1.7,1.3,2.2c0.4,0.3,0.9,0.4,1.4,0.4
			c0.6,0,1.1-0.1,1.4-0.4l2.8,1.7c-0.8,0.8-2,1.3-3.5,1.4c-1.4,0.1-2.6-0.2-3.7-0.9c-1.1-0.7-1.9-1.6-2.4-2.7
			c-0.5-1.2-0.6-2.4-0.3-3.6c0.1-0.4,0.3-0.8,0.6-1.4c0.4-0.8,0.9-1.6,1.5-2.3c2.3-2.7,4.8-3.2,7.6-1.5c1.9,1.1,2.8,2.7,2.8,4.7
			c0,1.4-0.4,2.8-1.2,4.1C662.6,187.7,662.5,187.9,662.3,188.3z M656.2,182l4.3,2.6c0.9-1.5,0.7-2.6-0.6-3.5
			c-0.7-0.5-1.4-0.6-2.1-0.4C657.1,180.8,656.6,181.3,656.2,182z"/>
		<path class="st1" d="M661,193.9l7.7-10.2l2.6,2l-1.2,1.5c1.4-0.7,2.7-0.6,3.8,0.2c2.6,2,3,4.1,1.2,6.5l-5.2,6.8l-2.6-2l4.7-6.2
			c0.5-0.6,0.8-1.2,0.8-1.5c0.1-0.7-0.3-1.3-1.2-1.9c-1.4-0.9-2.4-0.8-3.2,0.2l-4.9,6.5L661,193.9z"/>
		<path class="st1" d="M679.5,192.5l1.2,1.1l2.3-2.6l2.4,2.2l-2.3,2.6l1.4,1.2l-1.5,1.6l-1.4-1.2l-4.8,5.3c-0.5,0.5-0.6,0.9-0.3,1.2
			l1,0.9l-1.5,1.7c-0.5-0.2-1-0.5-1.4-0.8c-1.6-1.3-1.9-2.8-0.9-4.3l5.6-6.2l-1.2-1.1L679.5,192.5z"/>
		<path class="st1" d="M699.4,214.3l-2.1-2.5c0.7-0.5,1-1.3,0.9-2.2c-0.1-0.8-0.5-1.5-1.1-2.3c-1.2-1.5-2.4-1.9-3.5-1.1
			c-0.4,0.3-0.7,0.6-0.7,0.8c-0.1,0.3,0,0.6,0.1,1.1c0,0.3,0.6,1.7,2,4c0.8,1.4,1.3,2.6,1.3,3.6c0.1,1.3-0.5,2.4-1.6,3.3
			c-0.7,0.6-1.4,1-2.3,1.2c-0.9,0.3-1.8,0.3-2.6,0c-1.3-0.4-2.8-1.5-4.4-3.4c-0.4-0.4-0.7-1-1.1-1.7c-0.4-0.9-0.7-1.7-0.7-2.3
			c-0.1-1.8,0.5-3.4,1.9-4.7l2.2,2.6c-0.7,0.6-1,1.4-0.9,2.4c0.1,0.8,0.6,1.6,1.3,2.4c1.5,1.7,2.8,2.1,3.9,1.1
			c0.6-0.5,0.8-1.2,0.6-2.1c-0.1-0.5-0.4-1.3-1-2.2c-1.1-1.9-1.7-3-1.8-3.4c-0.8-2.1-0.4-3.7,1.1-5c1.3-1.1,2.8-1.5,4.3-1.2
			c1.4,0.3,2.7,1.2,4,2.7c1.7,2.1,2.4,4,2,5.8c-0.2,1.1-0.8,2-1.6,2.7C699.6,214.2,699.5,214.3,699.4,214.3z"/>
		<path class="st1" d="M701.5,215.8l2,3l-6.2,7.4l9.2-2.9l1.9,2.8l-15.8,4c-0.5,0.2-1.2,0.2-1.9,0.1c-0.8-0.2-1.9-1.2-3.1-3.1
			l2.2-1.5c0.1,0.2,0.2,0.3,0.3,0.4c0.9,1.3,1.8,1.6,2.8,0.9c0.2-0.1,0.4-0.3,0.5-0.5L701.5,215.8z"/>
		<path class="st1" d="M701.5,232.2l1.5,2.9c-0.5,0.5-0.8,1-0.8,1.6c0,0.4,0.2,1,0.5,1.8c0.2,0.5,0.5,0.9,0.8,1.1
			c0.4,0.3,0.8,0.3,1.3,0.1c0.5-0.3,0.8-0.7,0.6-1.3l-0.9-4.2c-0.4-1.8,0.1-3.1,1.5-3.9c1.2-0.7,2.4-0.8,3.5-0.3
			c1,0.5,1.9,1.3,2.6,2.6c0.8,1.3,1.1,2.7,1,3.9c-0.1,1.5-0.8,2.6-2.1,3.3l-1.5-2.8c0.4-0.2,0.7-0.5,0.8-0.7c0.1-0.3,0.1-0.6,0-1.1
			c-0.1-0.5-0.2-0.9-0.4-1.2c-0.2-0.4-0.5-0.8-0.8-1c-0.4-0.3-0.8-0.3-1.2-0.1c-0.4,0.2-0.5,0.6-0.4,1.1l1.1,4.8
			c0.2,0.7,0.1,1.4-0.2,2c-0.3,0.7-0.8,1.2-1.4,1.5c-0.8,0.4-1.7,0.6-2.6,0.5c-0.9-0.1-1.7-0.4-2.4-1.1c-0.7-0.6-1.3-1.5-1.9-2.6
			c-0.5-1.1-0.8-2-0.9-2.7C699.3,234.4,700,233,701.5,232.2z"/>
		<path class="st1" d="M715.4,239.9l0.6,1.5l3.2-1.4l1.3,3l-3.2,1.4l0.7,1.7l-2,0.9l-0.7-1.7l-6.6,2.9c-0.7,0.3-0.9,0.6-0.8,1
			l0.5,1.2l-2.1,0.9c-0.4-0.4-0.7-0.9-0.9-1.3c-0.9-1.9-0.6-3.3,0.9-4.3l7.6-3.3l-0.6-1.5L715.4,239.9z"/>
		<path class="st1" d="M715.9,261.4l-2.7-8c-0.8,0.2-1.5,0.5-1.8,1c-0.6,0.8-0.7,1.6-0.4,2.5c0.2,0.5,0.4,0.9,0.8,1.3
			c0.5,0.4,0.9,0.6,1.4,0.6l1,3.1c-1.2,0.1-2.3-0.3-3.5-1.2c-1.1-0.8-1.9-1.8-2.3-3c-0.4-1.2-0.5-2.4-0.1-3.7c0.3-1.2,1-2.2,2.1-2.9
			c0.3-0.2,0.8-0.5,1.4-0.7c0.9-0.4,1.7-0.6,2.6-0.8c3.5-0.6,5.8,0.7,6.8,3.7c0.7,2.1,0.4,3.9-0.8,5.4c-0.9,1.1-2.1,1.9-3.6,2.4
			C716.6,261.2,716.3,261.3,715.9,261.4z M715.3,252.7l1.6,4.8c1.6-0.6,2.2-1.6,1.8-3c-0.2-0.8-0.7-1.3-1.3-1.7
			C716.7,252.4,716,252.4,715.3,252.7z"/>
		<path class="st1" d="M712.1,267.9l-0.6-3.2l12.5-2.5l0.6,3.2l-1.9,0.4c1.6,0.7,2.5,1.7,2.8,2.8c0.2,1,0.1,1.8-0.2,2.5
			c-0.1,0.3-0.5,0.8-1,1.5c0.8,0.4,1.3,0.8,1.7,1.2c0.4,0.4,0.7,1.1,0.8,1.9c0.1,0.3,0.1,0.6,0.1,1c0.2,2.2-1,3.5-3.4,4l-8.7,1.7
			l-0.6-3.2l8.6-1.7c0.8-0.2,1.1-0.8,1-1.9c-0.1-0.7-0.4-1.2-0.9-1.6c-0.5-0.4-1.1-0.5-1.8-0.3l-7.6,1.5l-0.6-3.2l8.6-1.7
			c0.8-0.4,1.1-1,1-2.1c-0.1-0.7-0.4-1.2-0.9-1.5c-0.5-0.3-1.1-0.4-1.8-0.3L712.1,267.9z"/>
	</g>
	<g>
		<path class="st1" d="M546.9,429.6l3.6,1.4c-0.4,0.9-0.9,1.7-1.7,2.5c-0.8,0.8-1.7,1.3-2.6,1.6c-1.8,0.6-3.8,0.5-6-0.2
			c-2-0.7-3.5-1.9-4.4-3.6c-0.9-1.6-1.2-3.5-1-5.6c0.1-1,0.4-2.1,0.9-3.3c0.5-1.4,1.1-2.5,1.7-3.3c2.7-3.6,6.1-4.6,10.1-3.1
			c1.9,0.7,3.3,1.8,4.3,3.2c1.3,1.9,1.6,3.9,0.9,6.1l-3.5-1.3c0.2-0.8,0.2-1.7-0.2-2.5c-0.5-1.2-1.5-2-3.2-2.5
			c-0.8-0.2-1.7-0.2-2.5,0.1c-0.8,0.3-1.6,0.8-2.2,1.5c-0.6,0.7-1.2,1.6-1.7,2.9c-0.6,1.4-0.9,2.7-0.9,4c0,1.6,0.6,2.8,1.6,3.6
			c0.3,0.2,0.7,0.5,1.1,0.7c0.5,0.2,1.1,0.3,1.6,0.4c1.2,0.1,2.2-0.1,2.9-0.8C546.1,430.8,546.5,430.3,546.9,429.6z"/>
		<path class="st1" d="M566.2,435.2l-9.3-2.1c-0.3,0.9-0.3,1.7-0.1,2.3c0.4,1,1.1,1.6,2.2,1.9c0.5,0.1,1.1,0.1,1.7,0
			c0.7-0.2,1.1-0.5,1.4-1l3.6,0.8c-0.6,1.2-1.6,2.1-3.2,2.7c-1.5,0.6-2.9,0.7-4.2,0.4c-1.4-0.3-2.6-1-3.6-2.1
			c-1-1.1-1.5-2.3-1.6-3.7c0-0.4,0-1,0.1-1.8c0.1-1,0.4-2,0.8-3c1.5-3.7,4.1-5.1,7.6-4.3c2.4,0.5,4,1.9,4.7,4
			c0.5,1.5,0.6,3.1,0.2,4.9C566.4,434.5,566.3,434.8,566.2,435.2z M557.4,430.7l5.6,1.3c0.4-1.9-0.2-3.1-1.9-3.5
			c-0.9-0.3-1.7-0.2-2.4,0.3C558.1,429.1,557.6,429.7,557.4,430.7z"/>
		<path class="st1" d="M569.2,441.7l1.8-14.3l3.7,0.5l-0.3,2.8c0.4-0.7,1-1.4,1.8-1.9c0.9-0.5,1.7-0.8,2.5-0.7
			c0.2,0,0.3,0.1,0.5,0.1l-0.5,3.8c-0.5-0.1-0.9-0.2-1.3-0.2c-1.8-0.2-3,0.6-3.5,2.4l-1,8L569.2,441.7z"/>
		<path class="st1" d="M580.4,428.8l1.8,0.1l0.2-3.9l3.7,0.2l-0.2,3.9l2.1,0.1l-0.1,2.5l-2.1-0.1l-0.4,8.1c0,0.8,0.2,1.3,0.6,1.3
			l1.5,0.1l-0.1,2.5c-0.6,0.2-1.2,0.3-1.8,0.3c-2.4,0-3.7-1-3.9-3l0.4-9.3l-1.8-0.1L580.4,428.8z"/>
		<path class="st1" d="M591.1,427.2l-0.1-3.3l3.7-0.1l0.1,3.3L591.1,427.2z M591.4,443.2l-0.3-14.4l3.7-0.1l0.3,14.4L591.4,443.2z"
			/>
		<path class="st1" d="M597.8,431.4l-0.2-2.5l2-0.2l-0.2-1.7c-0.2-2.4,0.8-3.7,3.2-3.9l2.3-0.2l0.2,2.7l-1.3,0.1
			c-0.5,0-0.8,0.4-0.7,1l0.1,1.5l2.2-0.2l0.2,2.5l-2.2,0.2l1,11.6l-3.7,0.3l-1-11.6L597.8,431.4z"/>
		<path class="st1" d="M608,426l-0.5-3.3l3.6-0.6l0.5,3.3L608,426z M610.5,441.8l-2.3-14.2l3.6-0.6l2.3,14.2L610.5,441.8z"/>
		<path class="st1" d="M629.7,431.5l-9.3,2.3c0.1,1,0.5,1.7,1,2.1c0.8,0.7,1.8,0.9,2.8,0.7c0.5-0.1,1-0.4,1.5-0.8
			c0.5-0.5,0.8-1,0.8-1.5l3.5-0.9c0,1.3-0.5,2.6-1.6,3.9c-1.1,1.2-2.2,1.9-3.6,2.3c-1.4,0.4-2.8,0.3-4.1-0.2
			c-1.3-0.5-2.4-1.4-3.1-2.6c-0.2-0.4-0.4-0.9-0.7-1.6c-0.3-1-0.5-2-0.6-3c-0.3-4,1.3-6.4,4.8-7.3c2.4-0.6,4.4-0.1,6,1.4
			c1.1,1.1,1.9,2.5,2.4,4.2C629.6,430.7,629.6,431.1,629.7,431.5z M619.9,431.4l5.5-1.4c-0.5-1.9-1.6-2.6-3.3-2.3
			c-0.9,0.2-1.6,0.6-2,1.3C619.7,429.7,619.6,430.5,619.9,431.4z"/>
		<path class="st1" d="M640.6,413.3l7,18.1l-3.4,1.3l-0.5-1.4c-0.4,1.5-1.3,2.6-2.7,3.2c-1.2,0.5-2.3,0.7-3.2,0.5
			c-1-0.2-1.9-0.8-2.8-1.7c-1.1-1.1-1.9-2.2-2.5-3.3c-0.6-1.4-0.9-2.9-0.8-4.7c0.1-2.2,1.3-3.8,3.4-4.8c1.8-0.8,3.4-0.6,4.6,0.6
			l-2.5-6.5L640.6,413.3z M637.1,423.1c-1,0.4-1.6,1.2-1.8,2.4c-0.1,0.9,0,1.9,0.4,2.9c0.4,1,0.9,1.8,1.6,2.4c0.9,0.8,1.9,1,2.9,0.6
			c1-0.4,1.6-1.2,1.7-2.4c0.1-0.9,0-1.9-0.4-2.9c-0.4-1-0.9-1.8-1.6-2.4C639.1,422.9,638.1,422.7,637.1,423.1z"/>
	</g>
</g>
</svg>
